<svg width="746" height="666" viewBox="0 0 746 666" fill="none" xmlns="http://www.w3.org/2000/svg">
<g clip-path="url(#clip0)">
<path d="M723.232 353.312C720.301 352.871 717.507 351.714 715.07 349.933C712.632 348.151 710.619 345.794 709.187 343.047C707.756 340.3 706.946 337.237 706.821 334.102C706.697 330.966 707.261 327.843 708.469 324.978C709.678 322.112 711.497 319.584 713.784 317.592C716.072 315.599 718.764 314.197 721.65 313.496C724.536 312.795 727.536 312.814 730.413 313.552C733.291 314.289 735.967 315.725 738.232 317.747L733.181 326.712L741.256 321.146C744.277 325.432 745.57 330.815 744.85 336.111C744.605 337.971 744.113 339.784 743.388 341.497C741.697 345.522 738.815 348.853 735.177 350.985C731.54 353.117 727.347 353.934 723.232 353.312V353.312Z" fill="#57B894"/>
<path d="M649.226 448.579C654.612 441.571 651.819 431.08 647.88 423.062C643.942 415.044 638.919 406.514 640.65 397.662C643.139 384.941 657.271 379.989 668.696 375.288C677.173 371.798 685.23 367.256 692.699 361.756C695.693 359.55 698.637 357.14 700.726 353.972C703.735 349.41 704.697 343.722 705.547 338.229C708.379 319.931 710.803 301.568 712.819 283.141" stroke="#3F3D56" stroke-miterlimit="10"/>
<path d="M723.729 350.55C720.798 350.109 718.004 348.952 715.567 347.17C713.129 345.389 711.115 343.032 709.684 340.284C708.253 337.537 707.443 334.475 707.318 331.34C707.194 328.204 707.758 325.08 708.966 322.215C710.174 319.35 711.994 316.822 714.281 314.829C716.569 312.837 719.261 311.435 722.147 310.734C725.032 310.033 728.032 310.052 730.91 310.789C733.787 311.527 736.464 312.963 738.729 314.984L733.678 323.95L741.752 318.383C744.774 322.67 746.067 328.053 745.347 333.349C745.102 335.209 744.609 337.022 743.884 338.735C742.194 342.76 739.311 346.09 735.674 348.222C732.037 350.354 727.844 351.172 723.729 350.55V350.55Z" stroke="#3F3D56" stroke-miterlimit="10"/>
<path d="M731.74 289.752C732.194 286.389 731.842 282.96 730.716 279.779C729.591 276.598 727.729 273.769 725.301 271.551L719.512 279.517L721.558 268.871C717.955 266.907 713.856 266.208 709.853 266.874C705.85 267.541 702.15 269.538 699.288 272.579C696.426 275.62 694.55 279.546 693.93 283.791C693.31 288.036 693.978 292.38 695.839 296.196C697.7 300.012 700.656 303.102 704.281 305.02C707.907 306.939 712.013 307.586 716.009 306.869C720.004 306.152 723.68 304.108 726.508 301.031C729.336 297.955 731.168 294.005 731.74 289.752V289.752Z" fill="#57B894"/>
<path d="M732.403 286.069C732.856 282.706 732.504 279.277 731.379 276.096C730.254 272.915 728.391 270.086 725.963 267.868L720.175 275.834L722.221 265.188C718.617 263.224 714.518 262.525 710.515 263.191C706.512 263.858 702.813 265.855 699.951 268.896C697.089 271.937 695.212 275.863 694.592 280.108C693.972 284.353 694.641 288.697 696.502 292.513C698.362 296.329 701.319 299.419 704.944 301.337C708.569 303.256 712.676 303.903 716.671 303.186C720.666 302.469 724.343 300.425 727.171 297.348C729.998 294.272 731.83 290.322 732.403 286.069V286.069Z" stroke="#3F3D56" stroke-miterlimit="10"/>
<path d="M671.568 377.139C666.921 376.435 662.681 373.944 659.655 370.14C656.63 366.336 655.031 361.484 655.163 356.51C655.295 351.536 657.148 346.787 660.371 343.169C663.593 339.551 667.959 337.316 672.635 336.891L671.063 345.072L676.917 337.011C676.935 337.012 676.952 337.014 676.969 337.018C681.988 337.778 686.516 340.619 689.558 344.918C692.601 349.217 693.907 354.621 693.191 359.941C692.475 365.262 689.794 370.062 685.739 373.288C681.684 376.513 676.586 377.898 671.568 377.139Z" fill="#57B894"/>
<path d="M672.374 373.485C667.728 372.782 663.487 370.29 660.462 366.486C657.437 362.682 655.837 357.83 655.969 352.856C656.101 347.882 657.955 343.134 661.177 339.515C664.4 335.897 668.765 333.663 673.442 333.237L671.869 341.418L677.724 333.357C677.741 333.358 677.759 333.361 677.776 333.364C680.261 333.74 682.651 334.631 684.812 335.987C686.972 337.342 688.859 339.136 690.365 341.264C691.871 343.393 692.968 345.815 693.591 348.393C694.214 350.971 694.352 353.653 693.998 356.288C693.643 358.922 692.802 361.456 691.524 363.746C690.245 366.036 688.554 368.037 686.546 369.634C684.538 371.231 682.253 372.393 679.821 373.053C677.39 373.714 674.859 373.861 672.374 373.485V373.485Z" stroke="#3F3D56" stroke-miterlimit="10"/>
<path d="M674.196 416.76C671.495 420.42 667.69 422.985 663.418 424.024C659.146 425.062 654.666 424.512 650.731 422.466C646.796 420.419 643.645 417 641.805 412.783C639.965 408.565 639.55 403.805 640.628 399.302C641.705 394.798 644.211 390.824 647.725 388.046C651.239 385.268 655.547 383.856 659.926 384.045C664.306 384.235 668.491 386.015 671.779 389.088C675.067 392.16 677.259 396.338 677.987 400.92L664.441 408.664L677.91 408.103C677.344 411.262 676.07 414.231 674.196 416.76V416.76Z" fill="#57B894"/>
<path d="M674.692 413.998C671.992 417.658 668.187 420.222 663.915 421.261C659.642 422.3 655.163 421.75 651.228 419.704C647.293 417.657 644.141 414.238 642.302 410.021C640.462 405.803 640.046 401.043 641.124 396.539C642.202 392.035 644.708 388.061 648.222 385.284C651.736 382.506 656.044 381.093 660.423 381.283C664.803 381.473 668.987 383.253 672.276 386.325C675.564 389.398 677.756 393.575 678.483 398.158L664.938 405.902L678.407 405.341C677.841 408.5 676.567 411.469 674.692 413.998V413.998Z" stroke="#3F3D56" stroke-miterlimit="10"/>
<path d="M210.331 7.30264H146.956V82.2763H210.331V7.30264Z" fill="#6C63FF"/>
<path d="M221.352 0.486176H157.978V75.4599H221.352V0.486176Z" stroke="#3F3D56" stroke-miterlimit="10"/>
<path d="M63.3747 92.0132H0V166.987H63.3747V92.0132Z" fill="#F2F2F2"/>
<path d="M74.3964 85.1974H11.0217V160.171H74.3964V85.1974Z" stroke="#3F3D56" stroke-miterlimit="10"/>
<path d="M349.02 126.092H285.645V201.066H349.02V126.092Z" fill="#6C63FF"/>
<path d="M360.042 119.276H296.667V194.25H360.042V119.276Z" stroke="#3F3D56" stroke-miterlimit="10"/>
<path d="M449.593 555.584C493.471 555.584 529.041 512.819 529.041 460.066C529.041 407.313 493.471 364.548 449.593 364.548C405.715 364.548 370.145 407.313 370.145 460.066C370.145 512.819 405.715 555.584 449.593 555.584Z" fill="#36334A"/>
<path d="M551.574 142.23C532.482 151.06 511.664 154.883 490.883 153.375C496.221 149.338 499.647 142.857 501.027 136.061C502.408 129.266 501.882 122.163 500.456 115.378C500.196 114.604 500.211 113.755 500.499 112.991C500.791 112.608 501.161 112.299 501.58 112.087C502 111.875 502.459 111.766 502.924 111.767C510.972 110.579 534.024 105.423 540.152 112.726C543.056 116.187 541.944 122.91 543.004 127.137C543.442 128.883 549.044 143.404 551.574 142.23Z" fill="#FBBEBE"/>
<path opacity="0.1" d="M551.574 142.23C532.482 151.06 511.664 154.883 490.883 153.375C496.221 149.338 499.647 142.857 501.027 136.061C502.408 129.266 501.882 122.163 500.456 115.378C500.196 114.604 500.211 113.755 500.499 112.991C500.791 112.608 501.161 112.299 501.58 112.087C502 111.875 502.459 111.766 502.924 111.767C510.972 110.579 534.024 105.423 540.152 112.726C543.056 116.187 541.944 122.91 543.004 127.137C543.442 128.883 549.044 143.404 551.574 142.23Z" fill="black"/>
<path d="M484.495 287.237L365.093 291.132C365.093 291.132 259.469 400.184 346.724 433.289C346.724 433.289 454.185 451.789 479.903 430.368C479.903 430.368 512.049 296 484.495 287.237ZM478.984 323.263L351.316 332.026C351.316 332.026 360.501 298.921 397.24 298.921C433.979 298.921 475.31 290.158 478.984 310.605C482.658 331.053 478.984 323.263 478.984 323.263Z" fill="#3F3D56"/>
<path d="M390.365 269.767C384.409 268.801 377.934 268.243 372.718 271.44C370.981 272.591 369.369 273.94 367.909 275.462C365.811 277.504 363.73 279.564 361.664 281.642C360.153 283.161 358.573 284.837 358.186 287.006C357.388 291.469 362.251 295.063 366.533 294.889C370.815 294.715 374.657 292.221 378.7 290.718C386.844 287.692 416.795 292.865 418.431 283.568C420.512 271.747 396.988 270.885 390.365 269.767Z" fill="#FBBEBE"/>
<path d="M446.182 262.302C438.394 266.496 429.914 269.048 421.21 269.819C419.851 269.843 418.509 270.146 417.259 270.711C416.502 271.205 415.923 271.952 415.612 272.835C412.553 279.625 410.663 286.941 410.03 294.437C409.948 294.797 409.964 295.174 410.079 295.524C410.193 295.874 410.4 296.181 410.675 296.41C411.512 296.854 412.438 297.075 413.374 297.052C427.664 298.014 442.001 298.53 456.385 298.601C457.02 298.653 457.658 298.561 458.257 298.331C458.465 298.214 458.648 298.053 458.796 297.859C458.944 297.665 459.053 297.442 459.118 297.202C462.493 288.306 464.084 278.763 463.79 269.179C463.414 257.893 460.297 254.359 446.182 262.302Z" fill="#D7E5F2"/>
<path opacity="0.1" d="M446.182 262.302C438.394 266.496 429.914 269.048 421.21 269.819C419.851 269.843 418.509 270.146 417.259 270.711C416.502 271.205 415.923 271.952 415.612 272.835C412.553 279.625 410.663 286.941 410.03 294.437C409.948 294.797 409.964 295.174 410.079 295.524C410.193 295.874 410.4 296.181 410.675 296.41C411.512 296.854 412.438 297.075 413.374 297.052C427.664 298.014 442.001 298.53 456.385 298.601C457.02 298.653 457.658 298.561 458.257 298.331C458.465 298.214 458.648 298.053 458.796 297.859C458.944 297.665 459.053 297.442 459.118 297.202C462.493 288.306 464.084 278.763 463.79 269.179C463.414 257.893 460.297 254.359 446.182 262.302Z" fill="black"/>
<path d="M606.652 364.158L449.593 358.316L486.332 193.763C486.332 193.763 633.288 182.079 629.614 222C625.94 261.921 606.652 364.158 606.652 364.158Z" fill="#36334A"/>
<path d="M455.03 442.818C455.03 442.818 360.501 460.553 326.518 407.974C292.534 355.395 455.104 383.632 455.104 383.632L468.881 423.553L455.03 442.818Z" fill="#36334A"/>
<path d="M426.631 666C450.472 666 469.799 645.511 469.799 620.237C469.799 594.963 450.472 574.474 426.631 574.474C402.79 574.474 383.463 594.963 383.463 620.237C383.463 645.511 402.79 666 426.631 666Z" fill="#36334A"/>
<path d="M430.764 653.342C445.728 653.342 457.859 638.52 457.859 620.237C457.859 601.953 445.728 587.132 430.764 587.132C415.8 587.132 403.669 601.953 403.669 620.237C403.669 638.52 415.8 653.342 430.764 653.342Z" fill="#3F3D56"/>
<path d="M662.679 188.895C662.679 188.895 626.858 167.474 625.022 218.105L594.712 453.737H607.571L642.473 201.553C642.473 201.553 659.924 204.474 662.679 204.474C665.434 204.474 662.679 188.895 662.679 188.895Z" fill="#3F3D56"/>
<path d="M698.371 214.894C698.044 216.144 697.468 217.306 696.682 218.302C695.896 219.297 694.919 220.103 693.815 220.665C692.711 221.227 691.507 221.532 690.283 221.561C689.059 221.589 687.843 221.34 686.717 220.83L645.165 201.996L652.702 184.395L693.655 204.169C695.518 205.068 697.016 206.642 697.88 208.609C698.745 210.575 698.919 212.804 698.371 214.894V214.894Z" fill="#36334A"/>
<path d="M445.919 437.184C445.919 437.184 379.789 429.395 361.419 496.579C343.05 563.763 344.887 615.368 329.273 611.474C313.659 607.579 280.594 593.947 280.594 593.947L283.349 614.395C283.349 614.395 341.213 645.553 350.398 612.447C359.583 579.342 365.093 457.632 417.446 460.553C469.799 463.474 478.984 457.632 478.984 457.632L445.919 437.184Z" fill="#3F3D56"/>
<path d="M320.088 405.053C320.088 405.053 268.654 411.868 248.447 451.789C228.241 491.71 218.137 563.763 218.137 563.763H237.425C237.425 563.763 248.447 420.632 306.311 428.421L320.088 405.053Z" fill="#3F3D56"/>
<path d="M285.186 628.026L203.442 574.474C203.442 574.474 198.85 555 251.203 547.211C251.203 547.211 350.184 583.908 340.647 597.691C331.11 611.474 298.963 632.895 285.186 628.026Z" fill="#36334A"/>
<path d="M411.936 453.737V567.658H423.876V451.789L411.936 453.737Z" fill="#3F3D56"/>
<path d="M429.386 523.842C429.386 523.842 452.348 619.263 437.653 632.895C437.653 632.895 418.365 572.526 403.669 580.316L408.262 523.842H429.386Z" fill="#36334A"/>
<path d="M518.478 126.579C538.262 126.579 554.299 109.578 554.299 88.6053C554.299 67.633 538.262 50.6316 518.478 50.6316C498.695 50.6316 482.658 67.633 482.658 88.6053C482.658 109.578 498.695 126.579 518.478 126.579Z" fill="#FBBEBE"/>
<path d="M511.704 146.16C526.312 148.791 538.937 130.787 553.56 133.319C556.74 134.009 559.784 135.278 562.555 137.071C573.327 143.531 582.714 152.297 590.118 162.81C597.522 173.323 602.783 185.354 605.565 198.139C607.218 205.948 607.856 214.417 604.745 221.71C603.091 225.586 600.474 228.897 597.858 232.123C588.128 244.119 577.45 256.073 563.568 261.877C562.212 266.856 563.514 272.247 565.14 277.135C571.929 297.541 561.133 319.534 560.582 341.165C560.488 344.864 560.593 348.919 558.411 351.808C555.988 355.015 551.663 355.584 547.793 355.815C512.326 357.934 476.908 352.166 441.801 346.415C440.882 346.348 439.995 346.03 439.226 345.491C438.072 344.514 437.897 342.767 437.651 341.223C436.349 333.05 443.195 326.422 439.949 318.882C434.369 305.918 446.541 291.742 450.052 277.987C453.563 264.232 454.946 261.813 457.4 247.803C458.318 242.564 455.675 226.772 456.482 221.513C459.117 204.336 457.124 184.77 465.666 169.908C470.799 160.979 469.467 154.035 478.625 150.153C488.289 146.057 501.366 147.436 511.704 146.16Z" fill="#D7E5F2"/>
<path d="M349.934 372.621C339.24 374.808 327.887 376.893 319.658 384.455C314.632 389.073 311.254 395.334 307.972 401.467L274.494 464.041C264.283 483.126 254.067 502.22 244.81 521.843C244.001 523.27 243.527 524.882 243.426 526.544C243.463 528.886 244.948 530.899 246.468 532.599C251.749 538.403 258.237 542.819 265.414 545.494C272.59 548.169 280.257 549.029 287.803 548.006C290.106 535.366 301.44 527.011 306.995 515.563C310.048 509.273 311.274 502.2 313.245 495.441C320.594 470.232 338.04 449.99 354.978 430.657C362.983 421.52 371.177 412.224 381.491 406.229C393.592 399.195 407.632 397.249 421.154 394.328C434.676 391.407 448.677 386.977 458.245 376.436C462.306 371.895 465.365 366.454 467.199 360.506C469.033 354.559 469.597 348.253 468.85 342.046C460.187 341.404 450.546 340.209 442.19 343.163C432.485 346.593 423.099 351.281 413.379 354.785C392.64 362.262 371.442 368.222 349.934 372.621V372.621Z" fill="#696880"/>
<path opacity="0.1" d="M349.934 372.621C339.24 374.808 327.887 376.893 319.658 384.455C314.632 389.073 311.254 395.334 307.972 401.467L274.494 464.041C264.283 483.126 254.067 502.22 244.81 521.843C244.001 523.27 243.527 524.882 243.426 526.544C243.463 528.886 244.948 530.899 246.468 532.599C251.749 538.403 258.237 542.819 265.414 545.494C272.59 548.169 280.257 549.029 287.803 548.006C290.106 535.366 301.44 527.011 306.995 515.563C310.048 509.273 311.274 502.2 313.245 495.441C320.594 470.232 338.04 449.99 354.978 430.657C362.983 421.52 371.177 412.224 381.491 406.229C393.592 399.195 407.632 397.249 421.154 394.328C434.676 391.407 448.677 386.977 458.245 376.436C462.306 371.895 465.365 366.454 467.199 360.506C469.033 354.559 469.597 348.253 468.85 342.046C460.187 341.404 450.546 340.209 442.19 343.163C432.485 346.593 423.099 351.281 413.379 354.785C392.64 362.262 371.442 368.222 349.934 372.621V372.621Z" fill="black"/>
<path d="M205.597 571.045C204.405 571.95 203.489 573.205 202.96 574.656C201.745 579.047 206.929 582.141 211.077 583.407C220.398 586.25 230.342 589.1 239.639 586.169C245.341 584.372 250.302 580.522 255.966 578.598C264.372 575.743 273.477 577.364 282.167 579.009C284.108 567.428 282.802 555.497 278.41 544.695C275.622 537.877 264.462 534.559 257.818 534.26C250.555 533.933 248.032 539.614 243.84 544.843C233.629 557.578 217.362 560.53 205.597 571.045Z" fill="#3F3D56"/>
<path d="M356.758 391.273C351.619 393.44 346.35 395.696 342.319 399.709C338.063 403.947 335.572 409.76 333.3 415.462C326.587 432.317 320.872 449.598 316.188 467.207C313.822 476.104 311.712 485.104 308.524 493.708C302.161 510.881 291.364 527.327 292.378 545.745C292.372 547.983 292.941 550.18 294.022 552.102C295.463 554.319 297.915 555.495 300.245 556.568L312.458 562.19C319.011 565.206 327.008 568.107 332.863 563.766C336.782 560.861 338.347 555.593 339.529 550.682C343.798 532.945 346.435 514.521 354.084 498.109C362.728 479.559 377.345 464.57 385.079 445.574C386.174 442.886 387.211 440.001 389.364 438.166C391.142 436.65 393.447 436.06 395.671 435.523C441.541 424.451 488.445 418.394 533.948 405.733C540.417 403.933 547.185 401.796 551.8 396.665C558.199 389.549 558.769 378.734 558.974 368.905C559.102 362.747 559.075 356.056 555.536 351.171C551.544 345.662 544.387 344.207 537.87 343.48C512.875 340.693 489.821 345.084 465.203 348.3C442.68 351.242 419.993 364.72 398.981 373.525C384.9 379.426 370.826 385.342 356.758 391.273Z" fill="#696880"/>
<path d="M300.24 567.299C296.805 575.945 293.098 584.978 286.131 590.764C283.22 593.181 279.456 595.601 279.339 599.518C279.216 603.664 283.323 606.399 287.003 607.807C296.374 611.391 307.04 612.158 316.184 607.963C322.438 605.094 327.596 600.137 332.629 595.267C334.145 593.8 335.714 592.251 336.424 590.21C336.909 588.49 337.054 586.682 336.851 584.9C336.248 574.083 334.428 563.381 331.43 553.022C331.198 552.207 311.435 549.596 309.683 550.081C304.165 551.608 302.368 561.943 300.24 567.299Z" fill="#3F3D56"/>
<path d="M607.57 316.447L488.169 320.342C488.169 320.342 382.544 429.395 469.799 462.5C469.799 462.5 577.261 481 602.978 459.579C602.978 459.579 635.125 325.211 607.57 316.447ZM602.06 352.474L474.392 361.237C474.392 361.237 483.576 328.132 520.315 328.132C557.054 328.132 598.386 319.368 602.06 339.816C605.733 360.263 602.06 352.474 602.06 352.474Z" fill="#3F3D56"/>
<path d="M580.476 666C646.673 666 700.336 601.482 700.336 521.895C700.336 442.308 646.673 377.789 580.476 377.789C514.278 377.789 460.615 442.308 460.615 521.895C460.615 601.482 514.278 666 580.476 666Z" fill="#36334A"/>
<path d="M585.986 629C635.951 629 676.456 581.047 676.456 521.895C676.456 462.742 635.951 414.789 585.986 414.789C536.021 414.789 495.517 462.742 495.517 521.895C495.517 581.047 536.021 629 585.986 629Z" fill="#3F3D56"/>
<path d="M609.407 520.434C609.405 518.566 609.229 516.702 608.883 514.87L676.456 479.053L671.864 468.342L603.604 503.596C602.916 502.845 602.156 502.171 601.336 501.587L601.389 501.599L621.348 396.289L603.692 395.864L591.956 499.5L593.082 499.75C592.17 499.949 591.285 500.269 590.449 500.704L531.415 436.464L523.071 448.868L583.725 508.024C582.204 511.121 581.29 514.513 581.039 517.994L495.517 555L493.68 570.579L582.827 530.834C583.658 533.02 584.837 535.039 586.311 536.803L558.891 635.816H568.995L592.01 540.833C593.032 541.182 594.098 541.362 595.171 541.368C597.243 541.348 599.268 540.705 601.009 539.514L648.902 606.605L663.597 595.895L607.482 530.915C608.77 527.59 609.424 524.028 609.407 520.434V520.434Z" fill="#36334A"/>
<path d="M476.851 64.5638C478.469 60.2564 483.687 58.4747 485.397 54.207C487.235 49.6171 484.354 43.7771 486.855 39.554C489.375 35.299 495.247 35.7977 499.923 36.6198C505.442 37.5902 511.311 38.2429 516.46 35.9211C518.749 34.8885 520.781 33.3118 522.999 32.1154C526.524 30.2204 530.449 29.3159 534.398 29.4884C535.289 29.4669 536.17 29.6897 536.956 30.1354C537.703 30.7072 538.279 31.4955 538.614 32.4056C540.225 36.1034 540.455 40.7188 543.37 43.3711C544.771 44.6451 546.588 45.2454 548.265 46.0611C552.171 48.0597 555.405 51.2807 557.53 55.2893C559.655 59.2979 560.568 63.9011 560.147 68.4775C559.763 70.5967 559.522 72.7422 559.425 74.8978C559.539 79.6324 562.458 84.3621 560.967 88.8266C559.858 92.1451 556.615 94.1094 553.438 95.1324C552.534 95.5219 551.533 95.5756 550.597 95.2849C548.967 94.5847 548.641 92.3645 548.121 90.5836C547.385 88.2517 545.966 86.2301 544.07 84.8138C542.174 83.3974 539.901 82.6604 537.582 82.7103C533.876 82.8772 530.128 85.0831 526.632 83.7706C524.914 83.1257 523.57 81.718 522.197 80.4479C519.037 77.525 515.3 75.0932 511.148 74.471C506.995 73.8488 502.395 75.3332 499.95 78.945C498.962 80.4036 498.364 82.1207 497.422 83.6129C488.956 97.0193 473.356 73.8666 476.851 64.5638Z" fill="#36334A"/>
<path d="M481.28 323.75H417.906V398.724H481.28V323.75Z" fill="#6C63FF"/>
<path d="M495.937 295.987C494.365 295.771 492.767 295.964 491.281 296.55C489.795 297.137 488.467 298.098 487.412 299.352C479.374 307.114 470.856 315.864 469.399 327.287C469.176 328.328 469.294 329.418 469.733 330.379C470.507 331.722 472.208 332.02 473.692 332.046C477.448 332.086 481.168 331.275 484.603 329.666C488.039 328.058 491.11 325.69 493.612 322.72C494.991 321.062 496.256 319.164 498.145 318.23C499.873 317.549 501.727 317.305 503.559 317.519C508.601 317.694 520.114 320.43 524.51 317.778C529.133 314.99 527.862 306.25 525.704 302.036C520.574 292.019 504.669 295.887 495.937 295.987Z" fill="#FBBEBE"/>
<path d="M608.12 211.864C611.209 222.396 609.4 234.258 613.776 244.265C616.68 250.907 622.142 256.26 623.833 263.358C625.432 270.066 623.291 277.293 619.535 282.951C615.779 288.608 610.55 292.953 605.306 297.07C599.563 301.578 593.6 305.978 586.834 308.416C580.085 310.847 572.854 311.215 565.733 311.561L518.54 313.855L509.848 286.23L540.598 273.462C543.676 272.184 546.812 270.891 550.108 270.633C555.8 270.186 562.742 272.401 566.397 267.755C567.558 266.047 568.296 264.058 568.545 261.97C571.526 245.741 568.932 228.571 573.522 212.769C575.794 204.948 582.35 189.26 591.291 187.88C600.767 186.417 605.977 204.555 608.12 211.864Z" fill="#D7E5F2"/>
</g>
<defs>
<clipPath id="clip0">
<rect width="746" height="666" fill="white"/>
</clipPath>
</defs>
</svg>
