<svg width="746" height="666" viewBox="0 0 746 666" fill="none" xmlns="http://www.w3.org/2000/svg">
<mask id="mask0" mask-type="alpha" maskUnits="userSpaceOnUse" x="0" y="0" width="746" height="666">
<rect width="746" height="666" fill="#C4C4C4"/>
</mask>
<g mask="url(#mask0)">
<path d="M569.347 223.369C579.42 228.686 589.267 234.127 598.887 239.692" stroke="#2F2E41" stroke-miterlimit="10"/>
<path d="M381.885 190.421C425.824 199.922 473.795 216.324 522.12 239.472C557.123 256.126 590.616 275.784 622.223 298.223" stroke="#2F2E41" stroke-miterlimit="10"/>
<path d="M340.77 183.39C353.974 185.013 367.72 187.359 381.885 190.422" stroke="#2F2E41" stroke-miterlimit="10"/>
<path d="M211.555 321.155C187.161 285.456 178.781 251.727 191.314 225.561C205.177 196.62 242.283 181.816 292.583 180.726" stroke="#2F2E41" stroke-miterlimit="10"/>
<path d="M725.253 400.891C745.586 433.622 751.894 464.308 740.297 488.52C730.091 509.826 707.288 523.47 675.896 529.621" stroke="#2F2E41" stroke-miterlimit="10"/>
<path d="M622.223 298.223C642.6 312.674 661.86 328.638 679.842 345.979" stroke="#2F2E41" stroke-miterlimit="10"/>
<path d="M198.048 138.888C238.54 130.189 290.939 131.735 349.542 143.287" stroke="#2F2E41" stroke-miterlimit="10"/>
<path d="M598.887 239.692C617.07 250.205 634.37 261.079 650.786 272.312" stroke="#2F2E41" stroke-miterlimit="10"/>
<path d="M624.944 629.714C620.294 629.977 615.809 631.529 611.992 634.198C608.175 636.867 605.177 640.546 603.334 644.824C597.93 657.886 604.888 673.229 615.332 682.754C625.777 692.279 639.194 697.723 651.384 704.879C667.758 714.491 682.471 727.835 690.663 744.963C698.856 762.091 699.727 783.307 690.097 799.67C681.159 814.858 664.906 823.947 649.405 832.331" stroke="#3F3D56" stroke-miterlimit="10"/>
<path d="M638.71 640.124C649.254 640.124 657.801 635.973 657.801 630.852C657.801 625.731 649.254 621.579 638.71 621.579C628.167 621.579 619.62 625.731 619.62 630.852C619.62 635.973 628.167 640.124 638.71 640.124Z" fill="#57B894"/>
<path d="M522.642 269.647H533.396C533.396 269.647 543.255 345.826 536.085 352.995C528.915 360.165 509.199 364.646 506.51 352.995C503.821 341.344 506.51 298.326 506.51 298.326L522.642 269.647Z" fill="#6C63FF"/>
<path d="M452.289 279.954C488.421 279.954 517.713 245.647 517.713 203.327C517.713 161.008 488.421 126.701 452.289 126.701C416.157 126.701 386.865 161.008 386.865 203.327C386.865 245.647 416.157 279.954 452.289 279.954Z" fill="#2F2E41"/>
<path d="M437.501 217.667C437.501 217.667 441.086 247.242 430.332 253.516C419.577 259.789 442.879 295.638 442.879 295.638L470.661 302.807L489.482 276.817L485.897 249.931C485.897 249.931 464.388 228.422 474.246 208.705L437.501 217.667Z" fill="#FFC1C7"/>
<path opacity="0.1" d="M437.501 217.667C437.501 217.667 441.086 247.242 430.332 253.516C419.577 259.789 442.879 295.638 442.879 295.638L470.661 302.807L489.482 276.817L485.897 249.931C485.897 249.931 464.388 228.422 474.246 208.705L437.501 217.667Z" fill="black"/>
<path d="M397.172 538.708C397.172 538.708 386.417 636.396 397.172 659.697C407.926 682.999 436.605 748.422 436.605 748.422L427.643 767.243L451.841 761.865L461.699 743.045C461.699 743.045 450.048 697.338 448.256 681.206C446.464 665.074 433.02 635.499 433.02 635.499L458.114 528.85L397.172 538.708Z" fill="#FFC1C7"/>
<path d="M482.312 522.379C482.312 522.379 483.208 620.963 489.482 636.255L485.897 769.791L505.614 772.423C505.614 772.423 534.292 660.396 529.811 633.51C525.33 606.624 530.708 509.833 530.708 509.833L482.312 522.379Z" fill="#FFC1C7"/>
<path d="M452.289 229.766C471.098 229.766 486.345 214.519 486.345 195.71C486.345 176.901 471.098 161.654 452.289 161.654C433.48 161.654 418.233 176.901 418.233 195.71C418.233 214.519 433.48 229.766 452.289 229.766Z" fill="#FFC1C7"/>
<path d="M568.348 534.926C568.348 534.926 544.151 551.058 534.292 539.407C524.434 527.756 403.445 546.577 388.21 542.992C372.974 539.407 396.276 482.049 396.276 452.474C396.276 430.347 404.306 396.685 408.348 381.127C409.71 375.893 410.615 372.712 410.615 372.712C410.615 372.712 419.81 346.551 418.09 335.68C417.973 334.856 417.747 334.051 417.417 333.287C417.274 332.967 417.097 332.664 416.889 332.382C412.596 326.655 400.291 284.892 395.514 266.958C394.734 264.304 394.091 261.612 393.587 258.893C393.587 256.204 426.747 248.138 435.037 247.753C443.336 247.367 445.567 258.893 445.567 258.893C448.256 260.685 460.803 292.052 460.803 292.052L472.454 262.477C472.454 262.477 471.557 256.204 470.661 256.204C469.765 256.204 483.916 247.744 483.916 247.744C483.916 247.744 498.444 257.996 506.51 256.204C514.576 254.411 533.396 270.543 533.396 270.543C533.396 270.543 500.236 353.891 513.679 371.815C527.123 389.74 568.348 534.926 568.348 534.926Z" fill="#6C63FF"/>
<path opacity="0.1" d="M416.889 332.383C412.596 326.656 400.291 284.892 395.514 266.959H399.86C399.86 266.959 410.776 309.681 417.417 333.288C417.274 332.968 417.097 332.665 416.889 332.383Z" fill="black"/>
<path opacity="0.1" d="M476.039 391.532C476.039 391.532 463.492 392.428 417.785 383.466C414.6 382.855 411.45 382.074 408.348 381.127C409.71 375.893 410.615 372.712 410.615 372.712C410.615 372.712 419.81 346.551 418.09 335.68C420.231 343.208 421.827 348.29 422.266 348.514C424.058 349.41 481.416 359.269 489.482 362.853C497.548 366.438 476.039 391.532 476.039 391.532Z" fill="black"/>
<path opacity="0.1" d="M492.17 274.237C492.17 274.237 516.89 271.187 518.422 275.195C519.953 279.203 526.227 317.938 528.915 322.904C531.604 327.87 532.5 358.66 521.745 359.653C510.991 360.647 496.651 349.721 499.34 340.782C502.029 331.843 492.17 274.237 492.17 274.237Z" fill="black"/>
<path d="M479.623 356.58C479.623 356.58 517.264 361.061 523.538 356.58C529.811 352.099 555.801 352.099 550.424 364.646C545.047 377.193 498.444 378.089 498.444 378.089H471.557L479.623 356.58Z" fill="#FFC1C7"/>
<path d="M399.86 260.686H393.587C393.587 260.686 381.04 263.374 382.832 302.808C384.625 342.241 372.078 368.231 417.785 377.193C463.492 386.155 476.039 385.259 476.039 385.259C476.039 385.259 497.548 360.165 489.482 356.58C481.416 352.995 424.058 343.137 422.266 342.241C420.473 341.345 399.86 260.686 399.86 260.686Z" fill="#6C63FF"/>
<path d="M517.733 278.374C517.733 278.374 502.029 219.459 489.482 219.459C476.935 219.459 462.595 222.148 473.35 233.799C484.104 245.45 497.548 257.997 498.444 264.27C499.34 270.544 502.925 279.506 502.925 279.506L517.733 278.374Z" fill="#FFC1C7"/>
<path d="M495.755 274.237C495.755 274.237 520.475 271.187 522.006 275.195C523.538 279.203 529.811 317.938 532.5 322.904C535.189 327.87 536.085 358.66 525.33 359.653C514.576 360.647 500.236 349.721 502.925 340.782C505.614 331.843 495.755 274.237 495.755 274.237Z" fill="#6C63FF"/>
<path d="M443.327 195.71C461.146 195.71 475.59 181.265 475.59 163.446C475.59 145.628 461.146 131.183 443.327 131.183C425.508 131.183 411.063 145.628 411.063 163.446C411.063 181.265 425.508 195.71 443.327 195.71Z" fill="#2F2E41"/>
<path d="M573.337 528.167C523.269 519.915 466.628 501.977 409.491 474.609C344.434 443.447 289.307 405.124 250.026 366.393" stroke="#2F2E41" stroke-miterlimit="10"/>
<path d="M370.337 491.465C325.545 468.259 284.993 442.459 250.024 415.599" stroke="#2F2E41" stroke-miterlimit="10"/>
<path d="M53.7002 128.778C83.358 128.778 107.4 104.736 107.4 75.0781C107.4 45.4203 83.358 21.3779 53.7002 21.3779C24.0424 21.3779 0 45.4203 0 75.0781C0 104.736 24.0424 128.778 53.7002 128.778Z" fill="#6C63FF"/>
<path d="M66.2965 106.9C95.9543 106.9 119.997 82.858 119.997 53.2002C119.997 23.5424 95.9543 -0.5 66.2965 -0.5C36.6387 -0.5 12.5963 23.5424 12.5963 53.2002C12.5963 82.858 36.6387 106.9 66.2965 106.9Z" stroke="#2F2E41" stroke-miterlimit="10"/>
<path d="M230.362 639.642C255.167 639.642 275.275 619.534 275.275 594.729C275.275 569.924 255.167 549.816 230.362 549.816C205.558 549.816 185.45 569.924 185.45 594.729C185.45 619.534 205.558 639.642 230.362 639.642Z" fill="#F2F2F2"/>
<path d="M240.898 621.344C265.702 621.344 285.811 601.236 285.811 576.431C285.811 551.626 265.702 531.518 240.898 531.518C216.093 531.518 195.985 551.626 195.985 576.431C195.985 601.236 216.093 621.344 240.898 621.344Z" stroke="#2F2E41" stroke-miterlimit="10"/>
</g>
</svg>
