<svg width="746" height="666" viewBox="0 0 746 666" fill="none" xmlns="http://www.w3.org/2000/svg">
<g clip-path="url(#clip0)">
<path d="M687 502H629.388C629.388 503.993 570.012 505.611 570.012 505.611C569.08 506.456 568.231 507.425 567.481 508.5C565.225 511.738 563.993 515.83 564 520.056V522.944C564.002 527.733 565.582 532.324 568.395 535.71C571.208 539.095 575.022 540.998 579 541H687C690.977 540.996 694.79 539.092 697.603 535.707C700.415 532.322 701.997 527.732 702 522.944V520.056C701.994 515.269 700.412 510.68 697.6 507.296C694.789 503.911 690.977 502.007 687 502V502Z" fill="#3F3D56"/>
<path d="M642 541H626V664H642V541Z" fill="#3F3D56"/>
<path d="M686 663.794C686 665.899 662.495 664.608 633.5 664.608C604.505 664.608 581 665.899 581 663.794C581 661.69 604.505 645 633.5 645C662.495 645 686 661.69 686 663.794Z" fill="#3F3D56"/>
<path d="M554.998 647L540.769 646.999L534 578L555 578.001L554.998 647Z" fill="#FFB8B8"/>
<path d="M529.773 642H558V664H512C512 658.165 513.873 652.569 517.206 648.444C520.539 644.318 525.059 642 529.773 642V642Z" fill="#2F2E41"/>
<path d="M532.024 637L518 631.625L528.301 563L549 570.934L532.024 637Z" fill="#FFB8B8"/>
<path d="M509.425 622.886L536.534 633.291L531.178 654.169L487 637.212C487.703 634.47 488.841 631.925 490.349 629.721C491.857 627.517 493.704 625.698 495.787 624.368C497.869 623.038 500.145 622.222 502.485 621.968C504.825 621.713 507.184 622.025 509.425 622.886V622.886Z" fill="#2F2E41"/>
<path d="M647.761 489.489C647.422 485.994 646.813 482.547 645.941 479.194L643.198 474.97L636.06 464L635.749 464.015C635.222 464.044 633.03 464.191 629.641 464.513H629.605C627.509 464.719 624.946 464.983 622.036 465.32C621.269 465.423 620.467 465.511 619.641 465.613V480.924H634.611C635.339 480.925 636.041 481.25 636.588 481.838C637.134 482.427 637.487 483.238 637.581 484.121C637.593 484.283 637.605 484.429 637.605 484.591C637.605 485.563 637.29 486.495 636.728 487.183C636.167 487.87 635.405 488.257 634.611 488.257H547.661C546.554 489.158 545.49 490.137 544.476 491.19C541.412 494.094 539.205 498.14 538.188 502.717C533.11 530.054 523.852 581.032 521.121 596.006C520.923 597.134 520.968 598.306 521.252 599.406C521.535 600.506 522.047 601.498 522.738 602.282C523.248 602.864 523.846 603.318 524.499 603.617L535.302 608.574C535.746 608.775 536.208 608.908 536.679 608.97C536.739 608.97 536.787 608.985 536.847 608.985C536.958 608.997 537.07 609.002 537.182 608.999C538.274 608.994 539.34 608.585 540.239 607.827C541.139 607.068 541.831 605.994 542.224 604.746L550.752 577.351L563.89 535.114L569.088 518.41C575.112 520.14 625.653 533.838 642.576 511.766C644.245 509.592 645.562 507.048 646.456 504.272C647.88 499.551 648.329 494.473 647.761 489.489Z" fill="#2F2E41"/>
<path d="M662.879 493.345C662.614 492.03 662.312 490.672 661.962 489.298L652 474L651.687 474.015C651.058 474.059 648.076 474.251 643.499 474.709C638.308 475.24 631.05 476.097 622.9 477.441C622.659 477.47 622.405 477.514 622.163 477.559C621.366 477.692 620.557 477.825 619.749 477.972V480.704H634.842C635.575 480.705 636.284 481.032 636.835 481.625C637.385 482.217 637.742 483.034 637.837 483.923C637.848 484.086 637.861 484.233 637.861 484.396C637.86 485.375 637.542 486.314 636.976 487.006C636.41 487.698 635.642 488.087 634.842 488.088H581.496C579.166 489.018 576.919 489.992 574.77 491.041C563.492 496.505 555.052 503.667 553.325 512.984C552.746 516.115 552.106 519.556 551.43 523.218C548.918 536.833 545.863 553.505 543.098 568.656V568.67C542.53 571.801 541.963 574.843 541.42 577.796C539.113 590.496 537.157 601.261 536.119 606.917C536.094 607.079 536.071 607.227 536.046 607.389V607.419C535.926 608.563 536.042 609.725 536.384 610.8L536.396 610.815V610.83C536.728 611.859 537.269 612.768 537.966 613.473C538.433 613.943 538.959 614.318 539.524 614.58L550.415 619.572C551.022 619.849 551.663 619.994 552.311 620C553.219 620.003 554.112 619.723 554.907 619.188C556.048 618.432 556.931 617.2 557.394 615.718L580.843 540.466L584.478 528.785C590.552 530.527 641.507 544.305 658.569 522.096C661.939 517.634 663.863 511.821 663.978 505.749C664.097 501.571 663.727 497.394 662.879 493.345V493.345Z" fill="#2F2E41"/>
<path d="M661.236 363.962C661.044 363.683 660.839 363.405 660.622 363.141C657.413 359.039 653.449 355.92 649.057 354.038C644.665 352.156 639.969 351.566 635.353 352.315C631.327 352.958 627.338 353.913 623.412 355.172C618.341 356.757 613.697 359.923 609.94 364.357C607.014 367.807 604.709 371.958 603.172 376.548C601.635 381.137 600.899 386.065 601.011 391.019C601.059 393.026 601.071 395.077 601.048 397.157C601.048 398.124 601.035 399.105 601.024 400.087H612.905C613.42 400.085 613.934 400.159 614.435 400.307C615.885 400.728 617.176 401.73 618.1 403.152C619.025 404.573 619.529 406.332 619.532 408.144V476.293C620.339 476.571 621.146 476.85 621.942 477.143C622.195 477.245 622.436 477.333 622.677 477.421C622.954 477.523 623.231 477.626 623.496 477.728C625.942 478.651 628.332 479.628 630.666 480.658H634.594C635.326 480.659 636.033 480.984 636.583 481.572C637.133 482.159 637.488 482.969 637.583 483.852C638.402 484.247 639.197 484.643 639.98 485.038C642.764 486.445 645.403 487.851 647.825 489.213C651.091 491.03 653.995 492.759 656.429 494.268C657.194 494.742 658.04 494.992 658.899 495C660.027 494.996 661.124 494.554 662.032 493.74C662.22 493.571 662.401 493.39 662.574 493.198C663.219 492.463 663.706 491.548 663.994 490.532C664.282 489.516 664.361 488.429 664.225 487.368C662.981 475.86 662.618 464.238 663.14 452.649C663.478 442.907 664.201 432.916 665.141 423.262C665.647 418.032 666.213 412.905 666.804 407.968C667.37 403.251 667.973 398.724 668.563 394.447C669.338 389.023 669.08 383.455 667.81 378.17C666.54 372.886 664.291 368.026 661.236 363.962Z" fill="#6C63FF"/>
<path d="M611.854 365.365C611.251 365.047 610.631 364.782 609.997 364.571C606.866 363.535 603.535 363.917 600.613 365.648C597.692 367.379 595.375 370.343 594.085 373.999L586.011 396.896L585 399.783H612.888C613.391 399.782 613.892 399.854 614.381 400L615.321 397.329L618.894 387.194C620.313 383.152 620.369 378.584 619.049 374.491C617.729 370.399 615.142 367.117 611.854 365.365V365.365Z" fill="#6C63FF"/>
<path d="M637.5 341C653.792 341 667 324.882 667 305C667 285.118 653.792 269 637.5 269C621.208 269 608 285.118 608 305C608 324.882 621.208 341 637.5 341Z" fill="#FFB8B8"/>
<path d="M666.723 408.205L650.025 408.762L648.811 423.198L648.537 426.539L622.382 440.99L620 442.309V468L622.382 467.165L629.909 464.527H629.945L663.103 452.905L663.484 452.773C666.163 451.821 668.521 449.831 670.207 447.098C671.894 444.365 672.819 441.036 672.845 437.604L672.928 420.56L673 408L666.723 408.205Z" fill="#FFB8B8"/>
<path d="M672.18 379.653C672.071 377.467 671.611 375.329 670.827 373.361C670.044 371.393 668.952 369.634 667.614 368.183C664.911 365.254 661.37 363.76 657.769 364.031C654.168 364.302 650.803 366.316 648.413 369.629C646.023 372.942 644.804 377.283 645.026 381.697L646.835 417.883C646.884 418.835 647.103 419.763 647.477 420.599C647.851 421.436 648.371 422.162 648.999 422.725C649.999 423.639 651.232 424.086 652.476 423.986L665.155 423.029L668.999 422.74C669.699 422.697 670.385 422.482 671.015 422.105C671.645 421.729 672.206 421.2 672.665 420.55C672.767 420.413 672.861 420.267 672.949 420.115C673.7 418.882 674.069 417.361 673.989 415.824L672.18 379.653Z" fill="#6C63FF"/>
<path d="M623.525 477.781H621.975V477.59C621.181 477.723 620.376 477.855 619.571 478.002V480.719H630.675C628.343 479.691 625.96 478.711 623.525 477.781ZM623.525 477.781H621.975V477.59C621.181 477.723 620.376 477.855 619.571 478.002V480.719H630.675C628.343 479.691 625.96 478.711 623.525 477.781ZM634.592 477.781H621.975V408.016C621.97 405.627 621.332 403.305 620.155 401.398C618.978 399.491 617.327 398.102 615.449 397.441C614.643 397.144 613.805 396.995 612.962 397H506.013C503.623 397.004 501.332 398.165 499.643 400.23C497.953 402.295 497.003 405.095 497 408.016V479.984C497.001 482.906 497.951 485.707 499.641 487.773C501.331 489.838 503.623 490.999 506.013 491H634.592C635.924 490.997 637.207 490.395 638.198 489.309C639.189 488.222 639.817 486.727 639.964 485.11C639.988 484.872 640 484.631 640 484.391C639.998 482.639 639.427 480.959 638.414 479.72C637.4 478.481 636.026 477.784 634.592 477.781H634.592ZM637.597 484.391C637.596 485.364 637.28 486.298 636.716 486.987C636.153 487.675 635.389 488.062 634.592 488.063H506.013C504.26 488.061 502.58 487.21 501.34 485.695C500.101 484.18 499.404 482.126 499.403 479.984V408.016C499.404 405.874 500.101 403.82 501.34 402.305C502.58 400.79 504.26 399.939 506.013 399.938H612.962C613.476 399.936 613.989 400.01 614.488 400.158C615.934 400.58 617.222 401.585 618.144 403.01C619.066 404.436 619.569 406.199 619.571 408.016V480.719H634.592C635.322 480.72 636.027 481.045 636.575 481.634C637.124 482.223 637.478 483.036 637.573 483.921C637.584 484.082 637.597 484.229 637.597 484.391H637.597ZM623.525 477.781H621.975V477.59C621.181 477.723 620.376 477.855 619.571 478.002V480.719H630.675C628.343 479.691 625.96 478.711 623.525 477.781Z" fill="#3F3D56"/>
<path d="M559.5 453C563.642 453 567 448.971 567 444C567 439.029 563.642 435 559.5 435C555.358 435 552 439.029 552 444C552 448.971 555.358 453 559.5 453Z" fill="#6C63FF"/>
<path d="M631.457 290.315C624.601 297.822 615.409 305.88 607.015 300.38C601.502 296.769 599.048 288.849 600.336 281.352C602.651 267.87 612.159 260.585 621.365 254.696C633.333 247.041 646.54 240.365 659.941 242.355C673.342 244.346 686.436 257.92 685.803 274.449C685.294 287.742 676.439 300.142 679.242 312.998C682.063 325.936 694.875 330.947 705.787 331.605C716.7 332.263 728.712 331.122 737.369 339.293C748.412 349.717 748.235 371.513 740.373 385.621C732.512 399.728 719.237 407.667 706.198 413.701C688.922 421.697 669.933 427.474 652.1 421.596C634.267 415.717 618.655 394.746 621.271 372.338C622.376 362.872 626.438 354.376 630.358 346.11C634.279 337.844 638.222 329.224 639.045 319.716C639.731 311.793 637.678 303.046 632.91 297.942C632.048 297.054 631.437 295.852 631.165 294.511C630.894 293.17 630.976 291.758 631.401 290.478L631.457 290.315Z" fill="#2F2E41"/>
<path d="M1.12732 666H733.366C733.665 666 733.951 665.816 734.163 665.487C734.374 665.159 734.493 664.714 734.493 664.25C734.493 663.786 734.374 663.341 734.163 663.012C733.951 662.684 733.665 662.5 733.366 662.5H1.12732C0.978984 662.499 0.832026 662.544 0.694857 662.632C0.557689 662.719 0.433019 662.848 0.327977 663.011C0.222935 663.173 0.13959 663.366 0.082725 663.579C0.0258596 663.792 -0.00341797 664.02 -0.00341797 664.25C-0.00341797 664.48 0.0258596 664.708 0.082725 664.921C0.13959 665.133 0.222935 665.327 0.327977 665.489C0.433019 665.652 0.557689 665.781 0.694857 665.868C0.832026 665.956 0.978984 666.001 1.12732 666V666Z" fill="#3F3D56"/>
<path d="M38 520.056V522.944C38.0038 527.732 39.7227 532.322 42.7796 535.707C45.8364 539.092 49.9813 540.996 54.3043 541H171.696C176.019 540.998 180.165 539.095 183.223 535.71C186.28 532.324 187.998 527.733 188 522.944V520.056C188.008 515.83 186.668 511.738 184.217 508.5C183.401 507.425 182.478 506.456 181.465 505.611C181.465 505.611 116.926 503.993 116.926 502H54.3043C49.982 502.007 45.8384 503.911 42.782 507.296C39.7257 510.68 38.006 515.269 38 520.056V520.056Z" fill="#3F3D56"/>
<path d="M104 664H121L121 541H104L104 664Z" fill="#3F3D56"/>
<path d="M56 663.794C56 665.899 81.7436 664.608 113.5 664.608C145.256 664.608 171 665.899 171 663.794C171 661.69 145.256 645 113.5 645C81.7436 645 56 661.69 56 663.794Z" fill="#3F3D56"/>
<path d="M199.003 648H214.587L222 579L199 579.001L199.003 648Z" fill="#A0616A"/>
<path d="M245.734 664.955L195.463 664.957L195.463 643.076L226.31 643.075C231.462 643.074 236.402 645.379 240.044 649.483C243.687 653.586 245.734 659.152 245.734 664.955L245.734 664.955Z" fill="#2F2E41"/>
<path d="M223.619 638L239 632.625L227.702 564L205 571.934L223.619 638Z" fill="#A0616A"/>
<path d="M273 638.331L225.036 655.288L219.22 634.411L248.653 624.005C253.568 622.268 258.894 622.801 263.46 625.487C268.026 628.174 271.458 632.794 273 638.331L273 638.331Z" fill="#2F2E41"/>
<path d="M212.931 605.751L183.737 519.411C177.188 521.144 122.262 534.838 103.866 512.77C97.5613 505.206 96.3318 494.249 100.211 480.2L110.947 465L111.281 465.02C115.34 465.261 210.777 471.287 217.32 503.721C222.836 531.065 232.91 582.045 235.866 597.018C236.165 598.57 235.96 600.191 235.288 601.586C234.615 602.982 233.521 604.059 232.203 604.621L220.462 609.58C219.808 609.858 219.115 610 218.416 610C217.227 610 216.067 609.594 215.088 608.835C214.109 608.076 213.357 607.001 212.931 605.751V605.751Z" fill="#2F2E41"/>
<path d="M195.931 616.721L166.737 529.786C160.188 531.531 105.262 545.318 86.8659 523.099C80.5613 515.484 79.3318 504.45 83.2112 490.305L93.9471 475L94.2808 475.02C98.3401 475.262 193.777 481.331 200.32 513.988C205.836 541.521 215.91 592.852 218.866 607.929C219.165 609.491 218.96 611.123 218.288 612.528C217.615 613.933 216.521 615.018 215.203 615.584L203.462 620.577C202.808 620.857 202.115 621 201.416 621C200.227 621 199.067 620.591 198.088 619.827C197.109 619.063 196.357 617.98 195.931 616.721V616.721Z" fill="#2F2E41"/>
<path d="M169.819 449C165.48 448.998 161.215 447.711 157.443 445.265C153.67 442.818 150.52 439.296 148.299 435.044L139 417.076L161.102 403.296L170.486 417.974L234.161 410.321C234.471 409.682 234.819 409.068 235.204 408.484C236.426 406.65 237.973 405.13 239.744 404.023C241.515 402.916 243.47 402.247 245.483 402.059C247.505 401.862 249.54 402.159 251.452 402.933C253.365 403.707 255.11 404.938 256.57 406.545C258.912 409.107 260.426 412.496 260.867 416.162C261.307 419.829 260.649 423.558 258.998 426.744C257.966 428.729 256.577 430.443 254.923 431.773C253.269 433.103 251.387 434.02 249.401 434.463C247.415 434.906 245.369 434.865 243.398 434.344C241.427 433.822 239.574 432.831 237.962 431.436C237.588 431.11 237.23 430.762 236.888 430.393L175.901 448.13C173.914 448.708 171.87 449.001 169.819 449V449Z" fill="#A0616A"/>
<path d="M82.5246 494.742C81.6436 494.03 80.9556 493.057 80.5367 491.933C80.1177 490.808 79.9843 489.575 80.151 488.371C83.7826 461.495 79.6042 422.995 75.4593 395.43C74.6109 389.837 74.941 384.098 76.4233 378.674C77.9056 373.25 80.4989 368.291 83.9954 364.195C87.4918 360.099 91.7943 356.978 96.5582 355.084C101.322 353.19 106.415 352.575 111.428 353.288C115.791 353.935 120.112 354.891 124.366 356.151V356.151C131.433 358.149 137.684 362.787 142.092 369.302C146.499 375.818 148.801 383.823 148.619 392.001C147.999 418.601 152.81 451.789 154.907 464.823C155.05 465.718 155.028 466.637 154.84 467.522C154.653 468.407 154.306 469.24 153.819 469.967C153.342 470.687 152.736 471.287 152.041 471.729C151.345 472.17 150.574 472.444 149.779 472.531C126.537 475.194 101.472 487.919 88.6007 495.266C87.7734 495.745 86.8566 495.997 85.9257 496C84.702 495.995 83.5111 495.555 82.5246 494.742Z" fill="#CCCCCC"/>
<path d="M145.335 425.535C144.621 425.219 143.969 424.746 143.418 424.145C142.867 423.543 142.427 422.825 142.124 422.03L129.233 388.498C128.452 386.472 128.034 384.292 128.002 382.084C127.97 379.876 128.324 377.682 129.046 375.628C129.767 373.575 130.84 371.701 132.205 370.115C133.569 368.528 135.198 367.26 136.998 366.383C138.798 365.506 140.733 365.036 142.694 365.002C144.655 364.968 146.603 365.369 148.426 366.182C150.25 366.996 151.913 368.206 153.32 369.744C154.728 371.282 155.853 373.117 156.63 375.145L169.522 408.678C170.135 410.279 170.159 412.088 169.59 413.709C169.02 415.331 167.902 416.631 166.482 417.326L149.805 425.455C149.102 425.8 148.344 425.985 147.577 425.999C146.81 426.013 146.048 425.855 145.335 425.535H145.335Z" fill="#CCCCCC"/>
<path d="M109 342C126.673 342 141 325.882 141 306C141 286.118 126.673 270 109 270C91.3269 270 77 286.118 77 306C77 325.882 91.3269 342 109 342Z" fill="#A0616A"/>
<path d="M90.2841 337.981C89.8308 338.572 89.2771 339.054 88.6558 339.399C88.0345 339.745 87.3582 339.946 86.667 339.99C85.9757 340.035 85.2835 339.923 84.6313 339.661C83.9791 339.398 83.3801 338.99 82.8698 338.462C75.7337 331.937 70.074 323.588 66.3578 314.105C62.1973 302.903 61.5875 289.233 66.3227 278.733C70.3255 269.856 77.511 264.206 84.6845 259.588C87.4345 257.631 90.4481 256.192 93.6072 255.328C95.2028 254.919 96.8566 254.892 98.4621 255.249C100.068 255.605 101.589 256.338 102.929 257.399C104.35 258.62 105.451 260.255 106.111 262.129C106.772 264.003 106.968 266.045 106.679 268.036C109.96 263.153 114.384 259.403 119.451 257.209C122.56 255.697 126.034 255.434 129.294 256.464C133.9 258.201 137.31 263.455 139.208 269.101C140.742 273.423 141.305 278.108 140.844 282.736C140.643 284.945 140.046 287.086 139.09 289.027C138.134 290.968 136.838 292.669 135.281 294.027C131.523 296.955 126.682 296.658 122.312 295.362C117.942 294.065 113.701 291.868 109.254 291.255C104.808 290.642 99.8804 291.971 97.2312 296.45C95.3657 299.605 94.9258 303.761 94.5452 307.722L92.5653 328.325C92.4254 331.273 91.8632 334.176 90.9005 336.92C90.7377 337.303 90.5304 337.66 90.2841 337.981V337.981Z" fill="#2F2E41"/>
<path d="M205.889 560H153.619C152.772 560.003 151.935 559.791 151.173 559.379C150.411 558.967 149.743 558.367 149.22 557.624C148.686 556.871 148.313 555.993 148.13 555.055C147.947 554.117 147.958 553.145 148.162 552.213C153.052 529.392 153.052 505.608 148.162 482.787C147.957 481.855 147.946 480.883 148.13 479.945C148.313 479.007 148.686 478.129 149.22 477.376C149.743 476.633 150.411 476.033 151.173 475.621C151.935 475.209 152.772 474.997 153.619 475H205.889C207.224 475.003 208.516 475.534 209.533 476.499C210.55 477.463 211.227 478.799 211.443 480.267C214.852 504.944 214.852 530.056 211.443 554.733C211.227 556.201 210.55 557.537 209.533 558.501C208.516 559.466 207.224 559.997 205.889 560V560Z" fill="#CCCCCC"/>
<path d="M166 506.399V504.601C166.001 503.381 166.412 502.212 167.144 501.349C167.875 500.487 168.866 500.001 169.9 500H197.1C198.134 500.001 199.125 500.487 199.856 501.349C200.588 502.212 200.999 503.381 201 504.601V506.399C200.999 507.619 200.588 508.788 199.856 509.651C199.125 510.513 198.134 510.999 197.1 511H169.9C168.866 510.999 167.875 510.513 167.144 509.651C166.412 508.788 166.001 507.619 166 506.399V506.399Z" fill="white"/>
<path d="M166 524.399V522.601C166.001 521.381 166.412 520.212 167.144 519.349C167.875 518.487 168.866 518.001 169.9 518H197.1C198.134 518.001 199.125 518.487 199.856 519.349C200.588 520.212 200.999 521.381 201 522.601V524.399C200.999 525.619 200.588 526.788 199.856 527.651C199.125 528.513 198.134 528.999 197.1 529H169.9C168.866 528.999 167.875 528.513 167.144 527.651C166.412 526.788 166.001 525.619 166 524.399Z" fill="white"/>
<path d="M182.239 453.569C181.697 452.798 181.318 451.899 181.132 450.939C180.946 449.979 180.957 448.984 181.165 448.029C186.128 424.671 186.128 400.328 181.164 376.971C180.957 376.016 180.946 375.021 181.132 374.061C181.318 373.101 181.697 372.201 182.239 371.431C182.77 370.671 183.448 370.057 184.222 369.636C184.995 369.214 185.845 368.997 186.704 369H239.765C241.121 369.003 242.432 369.546 243.465 370.534C244.497 371.521 245.185 372.888 245.404 374.391C248.865 399.648 248.865 425.352 245.404 450.609C245.185 452.112 244.497 453.479 243.465 454.466C242.432 455.454 241.121 455.997 239.765 456H186.704C185.844 456.003 184.995 455.786 184.222 455.364C183.448 454.943 182.77 454.329 182.239 453.569Z" fill="#6C63FF"/>
<path d="M230.051 402H201.949C200.902 401.999 199.898 401.52 199.158 400.67C198.418 399.819 198.001 398.666 198 397.463V395.537C198.001 394.334 198.418 393.181 199.158 392.33C199.898 391.48 200.902 391.001 201.949 391H230.051C231.098 391.001 232.102 391.48 232.842 392.33C233.582 393.181 233.999 394.334 234 395.537V397.463C233.999 398.666 233.582 399.819 232.842 400.67C232.102 401.52 231.098 401.999 230.051 402V402Z" fill="white"/>
<path d="M230.051 420H201.949C200.902 419.999 199.898 419.52 199.158 418.67C198.418 417.819 198.001 416.666 198 415.463V413.537C198.001 412.334 198.418 411.181 199.158 410.33C199.898 409.48 200.902 409.001 201.949 409H230.051C231.098 409.001 232.102 409.48 232.842 410.33C233.582 411.181 233.999 412.334 234 413.537V415.463C233.999 416.666 233.582 417.819 232.842 418.67C232.102 419.52 231.098 419.999 230.051 420V420Z" fill="white"/>
<path d="M158.84 486.089C156.931 485.341 155.185 484.151 153.713 482.597C152.242 481.042 151.079 479.158 150.3 477.066C150.12 476.578 149.963 476.08 149.83 475.573L81.4419 453.753C78.5031 452.801 75.9162 450.813 74.0652 448.083C72.2143 445.354 71.1979 442.027 71.1669 438.599L71 409L96.208 409.756L97.8508 427.535L156.33 456.965C156.881 456.597 157.453 456.271 158.044 455.992H158.045C160.199 454.979 162.54 454.57 164.867 454.799C167.194 455.028 169.436 455.888 171.4 457.306C173.364 458.723 174.991 460.655 176.139 462.935C177.288 465.215 177.925 467.774 177.994 470.391C178.063 473.008 177.563 475.605 176.536 477.957C175.51 480.309 173.988 482.345 172.103 483.891C170.217 485.436 168.024 486.444 165.714 486.827C163.403 487.209 161.044 486.956 158.84 486.089V486.089Z" fill="#A0616A"/>
<path d="M71.4735 421.554C70.9609 420.913 70.5677 420.166 70.3169 419.356C70.0661 418.545 69.9624 417.688 70.0121 416.833L72.0139 380.67C72.1317 378.483 72.6367 376.344 73.4999 374.374C74.3631 372.403 75.5676 370.642 77.0445 369.189C78.5214 367.737 80.2417 366.622 82.107 365.908C83.9723 365.195 85.946 364.897 87.9151 365.031C89.8842 365.166 91.81 365.73 93.5825 366.692C95.355 367.654 96.9392 368.995 98.2447 370.638C99.5501 372.28 100.551 374.193 101.19 376.266C101.83 378.338 102.095 380.531 101.97 382.717L99.9687 418.88C99.8711 420.605 99.1613 422.217 97.9951 423.362C96.8288 424.507 95.3013 425.092 93.7474 424.988L75.5127 423.743C74.7425 423.693 73.9889 423.474 73.2955 423.098C72.6022 422.722 71.9829 422.197 71.4735 421.554H71.4735Z" fill="#CCCCCC"/>
<path d="M320.95 225H202.05C198.59 224.996 195.273 223.603 192.827 221.128C190.38 218.652 189.004 215.296 189 211.794V81.2056C189.004 77.7045 190.38 74.3479 192.827 71.8723C195.273 69.3966 198.59 68.004 202.05 68H320.95C324.41 68.004 327.727 69.3966 330.173 71.8723C332.62 74.3479 333.996 77.7045 334 81.2056V211.794C333.996 215.296 332.62 218.652 330.173 221.128C327.727 223.603 324.41 224.996 320.95 225V225ZM202.05 70.9346C199.359 70.9376 196.779 72.0207 194.876 73.9463C192.973 75.8718 191.903 78.4825 191.9 81.2056V211.794C191.903 214.517 192.973 217.128 194.876 219.054C196.779 220.979 199.359 222.062 202.05 222.065H320.95C323.641 222.062 326.221 220.979 328.124 219.054C330.027 217.128 331.097 214.517 331.1 211.794V81.2056C331.097 78.4825 330.027 75.8718 328.124 73.9463C326.221 72.0207 323.641 70.9376 320.95 70.9346H202.05Z" fill="#3F3D56"/>
<path d="M225.647 122H214.353C212.669 121.998 211.054 121.3 209.863 120.06C208.672 118.819 208.002 117.137 208 115.382V103.618C208.002 101.863 208.672 100.181 209.863 98.9404C211.054 97.6998 212.669 97.0019 214.353 97H225.647C227.331 97.0019 228.946 97.6998 230.137 98.9404C231.328 100.181 231.998 101.863 232 103.618V115.382C231.998 117.137 231.328 118.819 230.137 120.06C228.946 121.3 227.331 121.998 225.647 122V122Z" fill="#6C63FF"/>
<path d="M225.647 159H214.353C212.669 158.998 211.054 158.3 209.863 157.06C208.672 155.819 208.002 154.137 208 152.382V140.618C208.002 138.863 208.672 137.181 209.863 135.94C211.054 134.7 212.669 134.002 214.353 134H225.647C227.331 134.002 228.946 134.7 230.137 135.94C231.328 137.181 231.998 138.863 232 140.618V152.382C231.998 154.137 231.328 155.819 230.137 157.06C228.946 158.3 227.331 158.998 225.647 159V159Z" fill="#CCCCCC"/>
<path d="M310.64 115H256.36C255.204 114.999 254.096 114.52 253.278 113.67C252.461 112.819 252.001 111.666 252 110.463V108.537C252.001 107.334 252.461 106.181 253.278 105.33C254.096 104.48 255.204 104.001 256.36 104H310.64C311.796 104.001 312.904 104.48 313.722 105.33C314.539 106.181 314.999 107.334 315 108.537V110.463C314.999 111.666 314.539 112.819 313.722 113.67C312.904 114.52 311.796 114.999 310.64 115V115Z" fill="#6C63FF"/>
<path d="M554.95 225H436.05C432.59 224.996 429.273 223.603 426.827 221.128C424.38 218.652 423.004 215.296 423 211.794V81.2056C423.004 77.7045 424.38 74.3479 426.827 71.8723C429.273 69.3966 432.59 68.004 436.05 68H554.95C558.41 68.004 561.727 69.3966 564.173 71.8723C566.62 74.3479 567.996 77.7045 568 81.2056V211.794C567.996 215.296 566.62 218.652 564.173 221.128C561.727 223.603 558.41 224.996 554.95 225V225ZM436.05 70.9346C433.359 70.9376 430.779 72.0207 428.876 73.9463C426.973 75.8718 425.903 78.4825 425.9 81.2056V211.794C425.903 214.517 426.973 217.128 428.876 219.054C430.779 220.979 433.359 222.062 436.05 222.065H554.95C557.641 222.062 560.221 220.979 562.124 219.054C564.027 217.128 565.097 214.517 565.1 211.794V81.2056C565.097 78.4825 564.027 75.8718 562.124 73.9463C560.221 72.0207 557.641 70.9376 554.95 70.9346H436.05Z" fill="#3F3D56"/>
<path d="M545.64 113H491.36C490.204 112.999 489.096 112.52 488.278 111.67C487.461 110.819 487.001 109.666 487 108.463V106.537C487.001 105.334 487.461 104.181 488.278 103.33C489.096 102.48 490.204 102.001 491.36 102H545.64C546.796 102.001 547.904 102.48 548.722 103.33C549.539 104.181 549.999 105.334 550 106.537V108.463C549.999 109.666 549.539 110.819 548.722 111.67C547.904 112.52 546.796 112.999 545.64 113V113Z" fill="#CCCCCC"/>
<path d="M545.66 148H445.34C444.189 147.999 443.086 147.52 442.272 146.67C441.459 145.819 441.001 144.666 441 143.463V141.537C441.001 140.334 441.459 139.181 442.272 138.33C443.086 137.48 444.189 137.001 445.34 137H545.66C546.811 137.001 547.914 137.48 548.728 138.33C549.541 139.181 549.999 140.334 550 141.537V143.463C549.999 144.666 549.541 145.819 548.728 146.67C547.914 147.52 546.811 147.999 545.66 148Z" fill="#CCCCCC"/>
<path d="M545.66 173H445.34C444.189 172.999 443.086 172.52 442.272 171.67C441.459 170.819 441.001 169.666 441 168.463V166.537C441.001 165.334 441.459 164.181 442.272 163.33C443.086 162.48 444.189 162.001 445.34 162H545.66C546.811 162.001 547.914 162.48 548.728 163.33C549.541 164.181 549.999 165.334 550 166.537V168.463C549.999 169.666 549.541 170.819 548.728 171.67C547.914 172.52 546.811 172.999 545.66 173Z" fill="#CCCCCC"/>
<path d="M545.66 198H445.34C444.189 197.999 443.086 197.52 442.272 196.67C441.459 195.819 441.001 194.666 441 193.463V191.537C441.001 190.334 441.459 189.181 442.272 188.33C443.086 187.48 444.189 187.001 445.34 187H545.66C546.811 187.001 547.914 187.48 548.728 188.33C549.541 189.181 549.999 190.334 550 191.537V193.463C549.999 194.666 549.541 195.819 548.728 196.67C547.914 197.52 546.811 197.999 545.66 198Z" fill="#CCCCCC"/>
<path d="M310.64 152H256.36C255.204 151.999 254.096 151.52 253.278 150.67C252.461 149.819 252.001 148.666 252 147.463V145.537C252.001 144.334 252.461 143.181 253.278 142.33C254.096 141.48 255.204 141.001 256.36 141H310.64C311.796 141.001 312.904 141.48 313.722 142.33C314.539 143.181 314.999 144.334 315 145.537V147.463C314.999 148.666 314.539 149.819 313.722 150.67C312.904 151.52 311.796 151.999 310.64 152Z" fill="#CCCCCC"/>
<path d="M225.647 196H214.353C212.669 195.998 211.054 195.3 209.863 194.06C208.672 192.819 208.002 191.137 208 189.382V177.618C208.002 175.863 208.672 174.181 209.863 172.94C211.054 171.7 212.669 171.002 214.353 171H225.647C227.331 171.002 228.946 171.7 230.137 172.94C231.328 174.181 231.998 175.863 232 177.618V189.382C231.998 191.137 231.328 192.819 230.137 194.06C228.946 195.3 227.331 195.998 225.647 196V196Z" fill="#CCCCCC"/>
<path d="M310.64 188H256.36C255.204 187.999 254.096 187.564 253.278 186.791C252.461 186.017 252.001 184.969 252 183.876V182.124C252.001 181.031 252.461 179.983 253.278 179.209C254.096 178.436 255.204 178.001 256.36 178H310.64C311.796 178.001 312.904 178.436 313.722 179.209C314.539 179.983 314.999 181.031 315 182.124V183.876C314.999 184.969 314.539 186.017 313.722 186.791C312.904 187.564 311.796 187.999 310.64 188Z" fill="#CCCCCC"/>
<path d="M467.995 106C467.995 105.967 468 105.935 468 105.902C468 104.208 467.638 102.53 466.934 100.965C466.231 99.3992 465.2 97.9769 463.9 96.7788C462.6 95.5808 461.056 94.6304 459.358 93.9821C457.659 93.3337 455.839 93 454 93V106H467.995Z" fill="#6C63FF"/>
<path d="M453.505 107.603V94C450.839 93.9991 448.232 94.7875 446.014 96.2657C443.795 97.744 442.064 99.8461 441.039 102.307C440.013 104.768 439.739 107.477 440.251 110.093C440.763 112.709 442.039 115.115 443.916 117.008C445.794 118.9 448.19 120.195 450.802 120.728C453.414 121.26 456.125 121.008 458.594 120.002C461.063 118.996 463.179 117.282 464.675 115.075C466.171 112.869 466.98 110.269 467 107.603H453.505Z" fill="#CCCCCC"/>
</g>
<defs>
<clipPath id="clip0">
<rect width="746" height="666" fill="white"/>
</clipPath>
</defs>
</svg>
