<svg width="1226" height="925" viewBox="0 0 1226 925" fill="none" xmlns="http://www.w3.org/2000/svg">
<g clip-path="url(#clip0)">
<path d="M175.632 501.089C175.632 643.364 259.066 769.23 386.969 845.85C468.974 894.984 569.271 923.875 677.566 923.875C821.835 923.875 931.885 869.365 1014.67 785.863C1090.97 708.917 1144.1 607.331 1179.5 501.089C1337.54 26.7394 1073.53 -102.67 677.566 78.3029C425.452 193.542 175.632 267.597 175.632 501.089Z" fill="#6C63FF"/>
<path d="M386.968 252.764V846.974C468.974 896.109 569.271 925 677.566 925C821.835 925 931.885 870.49 1014.67 786.988V252.764H386.968Z" fill="#F2F2F2"/>
<path d="M954.293 542.297C921.428 531.846 887.329 525.768 852.876 524.221C835.612 523.487 818.317 524.163 801.163 526.244C784.175 528.49 767.393 532.082 750.974 536.986C734.752 541.682 718.754 547.106 702.587 551.981C686.163 556.995 669.467 561.069 652.579 564.181C635.779 567.22 618.811 569.242 601.767 570.235C584.89 571.216 567.848 571.407 551.018 569.61C535.298 568.097 519.9 564.195 505.358 558.038C491.794 552.121 479.259 544.083 468.224 534.227C465.47 531.769 462.82 529.203 460.275 526.529C458.774 524.959 461.156 522.57 462.661 524.143C484.175 546.626 512.452 560.567 543.123 565.222C559.831 567.758 576.858 567.905 593.714 567.251C610.946 566.587 628.121 564.852 645.139 562.057C661.951 559.27 678.582 555.485 694.944 550.723C711.017 546.068 726.87 540.701 742.887 535.862C759.044 530.79 775.537 526.861 792.246 524.105C809.002 521.553 825.94 520.378 842.888 520.591C876.755 521.132 910.404 526.114 942.974 535.408C947.065 536.557 951.137 537.768 955.19 539.044C957.255 539.691 956.373 542.949 954.293 542.297H954.293Z" fill="#3F3D56"/>
<path d="M954.293 627.767C921.428 617.316 887.329 611.238 852.876 609.691C835.612 608.957 818.317 609.633 801.163 611.714C784.175 613.96 767.393 617.552 750.974 622.456C734.752 627.152 718.754 632.576 702.587 637.451C686.163 642.466 669.467 646.539 652.579 649.651C635.779 652.69 618.811 654.712 601.767 655.706C584.89 656.686 567.848 656.877 551.018 655.08C535.298 653.567 519.9 649.665 505.358 643.509C491.794 637.591 479.259 629.554 468.224 619.697C465.47 617.239 462.82 614.673 460.275 611.999C458.774 610.43 461.156 608.04 462.661 609.613C484.175 632.096 512.452 646.037 543.123 650.692C559.831 653.229 576.858 653.376 593.714 652.722C610.946 652.057 628.121 650.322 645.139 647.527C661.951 644.74 678.582 640.955 694.944 636.193C711.017 631.538 726.87 626.171 742.887 621.332C759.044 616.26 775.537 612.331 792.246 609.575C809.002 607.024 825.94 605.848 842.888 606.061C876.755 606.602 910.404 611.584 942.974 620.878C947.065 622.027 951.137 623.239 955.19 624.514C957.255 625.161 956.373 628.419 954.293 627.767H954.293Z" fill="#3F3D56"/>
<path d="M954.293 464.699C921.428 454.248 887.329 448.17 852.876 446.623C835.612 445.889 818.317 446.565 801.163 448.646C784.175 450.892 767.393 454.484 750.974 459.388C734.752 464.083 718.754 469.508 702.587 474.383C686.163 479.397 669.467 483.47 652.579 486.583C635.779 489.622 618.811 491.644 601.767 492.637C584.89 493.618 567.848 493.809 551.018 492.012C535.298 490.499 519.9 486.596 505.358 480.44C491.794 474.523 479.259 466.485 468.224 456.629C465.47 454.171 462.82 451.605 460.275 448.93C458.774 447.361 461.156 444.972 462.661 446.545C484.175 469.028 512.452 482.969 543.123 487.624C559.831 490.16 576.858 490.307 593.714 489.653C610.946 488.988 628.121 487.254 645.139 484.459C661.95 481.671 678.582 477.887 694.944 473.125C711.017 468.47 726.87 463.103 742.887 458.264C759.044 453.191 775.537 449.263 792.246 446.507C809.002 443.955 825.94 442.78 842.888 442.993C876.755 443.534 910.404 448.516 942.974 457.81C947.065 458.958 951.137 460.17 955.19 461.446C957.255 462.093 956.373 465.351 954.293 464.699H954.293Z" fill="#3F3D56"/>
<path d="M958.313 317.983C950.148 314.367 940.795 314.998 932.321 317.095C923.184 319.355 914.58 323.287 905.586 326.006C889.486 330.802 872.385 331.126 856.115 326.944C846.955 324.608 838.214 320.863 830.206 315.842C828.372 314.689 830.063 311.769 831.909 312.929C846.184 321.84 862.685 326.543 879.515 326.497C887.956 326.484 896.35 325.249 904.436 322.829C913.364 320.152 921.9 316.266 930.945 313.962C940.528 311.52 950.805 310.99 960.017 315.07C961.998 315.948 960.283 318.856 958.313 317.983Z" fill="#3F3D56"/>
<path d="M707.567 835.312C678.989 835.312 655.821 812.151 655.821 783.58C655.821 755.009 678.989 731.848 707.567 731.848C736.146 731.848 759.313 755.009 759.313 783.58C759.313 812.151 736.146 835.312 707.567 835.312Z" fill="#3F3D56"/>
<path d="M986.545 147.05C971.013 147.05 958.422 134.463 958.422 118.935C958.422 103.407 971.013 90.8198 986.545 90.8198C1002.08 90.8198 1014.67 103.407 1014.67 118.935C1014.67 134.463 1002.08 147.05 986.545 147.05Z" fill="#F2F2F2"/>
<path d="M740.19 217.901C729.628 217.901 721.066 209.341 721.066 198.782C721.066 188.224 729.628 179.664 740.19 179.664C750.751 179.664 759.313 188.224 759.313 198.782C759.313 209.341 750.751 217.901 740.19 217.901Z" fill="#F2F2F2"/>
<path d="M1050.66 401.212C1040.1 401.212 1031.54 392.653 1031.54 382.094C1031.54 371.535 1040.1 362.976 1050.66 362.976C1061.23 362.976 1069.79 371.535 1069.79 382.094C1069.79 392.653 1061.23 401.212 1050.66 401.212Z" fill="#F2F2F2"/>
<path d="M1127.66 240.064H1129.77V617.084H1127.66V240.064Z" fill="#3F3D56"/>
<path d="M1128.31 584.774C1105.59 584.774 1087.18 542.769 1087.18 490.954C1087.18 439.138 1105.59 397.134 1128.31 397.134C1151.02 397.134 1169.43 439.138 1169.43 490.954C1169.43 542.769 1151.02 584.774 1128.31 584.774Z" fill="#3F3D56"/>
<path d="M1128.31 370.779C1105.59 370.779 1087.18 328.775 1087.18 276.96C1087.18 225.144 1105.59 183.14 1128.31 183.14C1151.02 183.14 1169.43 225.144 1169.43 276.96C1169.43 328.775 1151.02 370.779 1128.31 370.779Z" fill="#3F3D56"/>
<path d="M1127.3 200.309L1129.32 199.704C1129.19 199.277 1116.79 156.803 1137.15 129.46C1148.65 114.017 1168.38 106.186 1195.79 106.186V104.078C1167.67 104.078 1147.37 112.197 1135.45 128.209C1114.46 156.409 1127.17 199.874 1127.3 200.309Z" fill="#3F3D56"/>
<path d="M1195.79 131.486C1181.23 131.486 1169.43 119.687 1169.43 105.132C1169.43 90.5774 1181.23 78.7783 1195.79 78.7783C1210.35 78.7783 1222.15 90.5774 1222.15 105.132C1222.15 119.687 1210.35 131.486 1195.79 131.486Z" fill="#3F3D56"/>
<path d="M359.284 704.825L379 925H242.957L237.043 908.247L229.156 925H101C101 925 110.858 697.645 128.603 690.465C146.348 683.286 359.284 704.825 359.284 704.825Z" fill="#2F2E41"/>
<path d="M242.626 304.23C204.502 304.23 173.597 273.333 173.597 235.22C173.597 197.106 204.502 166.209 242.626 166.209C280.749 166.209 311.654 197.106 311.654 235.22C311.654 273.333 280.749 304.23 242.626 304.23Z" fill="#FFB8B8"/>
<path d="M282.071 278.598C282.071 278.598 276.154 341.693 282.071 345.637C287.988 349.58 187.403 347.608 187.403 347.608C187.403 347.608 201.209 290.428 187.403 262.824L282.071 278.598Z" fill="#FFB8B8"/>
<path d="M246.57 331.834C246.57 331.834 195.822 339.736 191.612 323.955L165.708 359.439L163.736 714.349C163.736 714.349 374.766 739.982 382.655 698.575C390.544 657.169 301.793 329.863 301.793 329.863L279.45 328.417C279.45 328.417 250.515 331.834 246.57 331.834Z" fill="#D0CDE1"/>
<path d="M279.786 312.224L313.627 323.948L410.267 347.608L406.322 584.215C406.322 584.215 489.157 820.822 451.684 838.568C414.211 856.314 360.961 814.907 345.183 785.331C329.405 755.755 274.182 345.637 274.182 337.75C274.182 329.863 279.786 312.224 279.786 312.224Z" fill="#3F3D56"/>
<path d="M192.88 312.224L179.514 323.948L84.8459 367.325L132.18 605.904C132.18 605.904 69.068 822.794 92.735 834.624C116.402 846.455 151.902 879.974 159.791 860.257C167.68 840.54 214.135 334.02 192.88 312.224Z" fill="#3F3D56"/>
<path d="M138.097 627.593C138.097 627.593 226.848 590.131 228.82 623.65C230.792 657.169 128.236 680.83 128.236 670.971C128.236 661.113 138.097 627.593 138.097 627.593Z" fill="#FFB8B8"/>
<path d="M355.044 613.791C355.044 613.791 252.487 690.688 291.932 710.406C331.377 730.123 382.655 641.395 382.655 641.395L355.044 613.791Z" fill="#FFB8B8"/>
<path d="M211.98 134.131C211.656 133.445 211.134 132.871 210.481 132.484C209.828 132.096 209.074 131.913 208.316 131.957C239.919 130.067 273.206 133.75 299.645 151.16C307.05 156.036 313.964 161.999 322.394 164.747L315.552 170.111L323.727 172.603L311.696 180.377C312.911 181.758 314.469 182.793 316.213 183.377C317.958 183.961 319.825 184.073 321.627 183.703C316.398 185.23 312.548 189.882 310.593 194.965C308.638 200.048 308.286 205.584 307.956 211.02C305.935 203.176 297.373 198.559 289.285 198.09C281.197 197.621 273.309 200.289 265.438 202.207C248.294 206.372 230.489 207.057 213.076 204.221C218.989 216.084 214.001 230.234 208.982 242.502L198.96 266.998C193.396 267.557 189.463 262.025 185.271 258.325C181.45 254.952 196.661 284.614 194.306 283.527C191.246 282.116 158.96 246.478 157.448 243.468C150.55 229.732 146.411 214.41 147.034 199.053C147.656 183.695 153.277 168.33 163.865 157.186C171.054 149.621 180.999 148.296 188.328 142.008C191.212 139.534 191.223 137.6 195.186 136.157C196.503 135.678 211.762 133.648 211.98 134.131Z" fill="#2F2E41"/>
<path d="M396.461 353.524L410.267 347.608L520.712 529.007C520.712 529.007 540.435 576.329 504.935 598.018C469.434 619.707 386.6 684.773 386.6 684.773L339.266 611.82C339.266 611.82 435.906 566.47 429.989 548.724C424.072 530.979 392.516 483.658 392.516 483.658L396.461 353.524Z" fill="#3F3D56"/>
<path d="M110.485 363.382L84.8461 367.326C84.8461 367.326 -21.6553 576.329 3.98395 615.763C29.6232 655.198 134.152 710.406 134.152 710.406C134.152 710.406 136.125 645.339 153.875 621.678L92.7352 598.018L126.263 467.884L110.485 363.382Z" fill="#3F3D56"/>
</g>
<defs>
<clipPath id="clip0">
<rect width="1226" height="925" fill="white" transform="matrix(-1 0 0 1 1226 0)"/>
</clipPath>
</defs>
</svg>
