<svg width="101" height="108" viewBox="0 0 101 108" fill="none" xmlns="http://www.w3.org/2000/svg">
<path d="M91.522 107.064H9.52197C7.13586 107.061 4.84828 106.112 3.16104 104.425C1.4738 102.738 0.524701 100.45 0.521973 98.0638V9.06384C0.524699 6.67773 1.4738 4.39015 3.16104 2.70291C4.84828 1.01567 7.13586 0.0665689 9.52197 0.0638428H91.522C93.9081 0.0665715 96.1957 1.01568 97.8829 2.70291C99.5702 4.39015 100.519 6.67773 100.522 9.06384V98.0638C100.519 100.45 99.5702 102.738 97.8829 104.425C96.1957 106.112 93.9081 107.061 91.522 107.064V107.064ZM9.52197 2.06384C7.6661 2.06592 5.88683 2.80409 4.57452 4.11639C3.26222 5.4287 2.52405 7.20797 2.52197 9.06384V98.0638C2.52405 99.9197 3.26222 101.699 4.57452 103.011C5.88683 104.324 7.6661 105.062 9.52197 105.064H91.522C93.3778 105.062 95.1571 104.324 96.4694 103.011C97.7817 101.699 98.5199 99.9197 98.522 98.0638V9.06384C98.5199 7.20797 97.7817 5.4287 96.4694 4.11639C95.1571 2.80409 93.3778 2.06592 91.522 2.06384H9.52197Z" fill="#3F3D56"/>
<path d="M26.0371 37.0638H18.0371C16.844 37.0625 15.7002 36.588 14.8566 35.7444C14.0129 34.9007 13.5384 33.7569 13.5371 32.5638V24.5638C13.5384 23.3708 14.0129 22.227 14.8566 21.3833C15.7002 20.5397 16.844 20.0652 18.0371 20.0638H26.0371C27.2302 20.0652 28.374 20.5397 29.2176 21.3833C30.0612 22.227 30.5358 23.3708 30.5371 24.5638V32.5638C30.5358 33.7569 30.0612 34.9007 29.2176 35.7444C28.374 36.588 27.2302 37.0625 26.0371 37.0638V37.0638Z" fill="#6C63FF"/>
<path d="M26.0371 62.0638H18.0371C16.844 62.0625 15.7002 61.588 14.8566 60.7444C14.0129 59.9007 13.5384 58.7569 13.5371 57.5638V49.5638C13.5384 48.3708 14.0129 47.227 14.8566 46.3833C15.7002 45.5397 16.844 45.0652 18.0371 45.0638H26.0371C27.2302 45.0652 28.374 45.5397 29.2176 46.3833C30.0612 47.227 30.5358 48.3708 30.5371 49.5638V57.5638C30.5358 58.7569 30.0612 59.9007 29.2176 60.7444C28.374 61.588 27.2302 62.0625 26.0371 62.0638V62.0638Z" fill="#CCCCCC"/>
<path d="M84.5071 32.2008H47.1577C46.3623 32.1999 45.5998 31.8836 45.0374 31.3212C44.4749 30.7587 44.1586 29.9962 44.1577 29.2008V27.9269C44.1586 27.1315 44.4749 26.3689 45.0374 25.8065C45.5998 25.2441 46.3623 24.9277 47.1577 24.9269H84.5071C85.3025 24.9277 86.065 25.2441 86.6274 25.8065C87.1899 26.3689 87.5062 27.1315 87.5071 27.9269V29.2008C87.5062 29.9962 87.1899 30.7587 86.6274 31.3212C86.065 31.8836 85.3025 32.1999 84.5071 32.2008V32.2008Z" fill="#6C63FF"/>
<path d="M84.5071 57.2008H47.1577C46.3623 57.1999 45.5998 56.8836 45.0374 56.3212C44.4749 55.7587 44.1586 54.9962 44.1577 54.2008V52.9269C44.1586 52.1315 44.4749 51.3689 45.0374 50.8065C45.5998 50.2441 46.3623 49.9277 47.1577 49.9269H84.5071C85.3025 49.9277 86.065 50.2441 86.6274 50.8065C87.1899 51.3689 87.5062 52.1315 87.5071 52.9269V54.2008C87.5062 54.9962 87.1899 55.7587 86.6274 56.3212C86.065 56.8836 85.3025 57.1999 84.5071 57.2008Z" fill="#CCCCCC"/>
<path d="M26.0371 87.0638H18.0371C16.844 87.0625 15.7002 86.588 14.8566 85.7444C14.0129 84.9007 13.5384 83.7569 13.5371 82.5638V74.5638C13.5384 73.3708 14.0129 72.227 14.8566 71.3833C15.7002 70.5397 16.844 70.0652 18.0371 70.0638H26.0371C27.2302 70.0652 28.374 70.5397 29.2176 71.3833C30.0612 72.227 30.5358 73.3708 30.5371 74.5638V82.5638C30.5358 83.7569 30.0612 84.9007 29.2176 85.7444C28.374 86.588 27.2302 87.0625 26.0371 87.0638V87.0638Z" fill="#CCCCCC"/>
<path d="M84.5071 82.2008H47.1577C46.3623 82.1999 45.5998 81.8836 45.0374 81.3212C44.4749 80.7587 44.1586 79.9962 44.1577 79.2008V77.9269C44.1586 77.1315 44.4749 76.3689 45.0374 75.8065C45.5998 75.2441 46.3623 74.9277 47.1577 74.9269H84.5071C85.3025 74.9277 86.065 75.2441 86.6274 75.8065C87.1899 76.3689 87.5062 77.1315 87.5071 77.9269V79.2008C87.5062 79.9962 87.1899 80.7587 86.6274 81.3212C86.065 81.8836 85.3025 82.1999 84.5071 82.2008Z" fill="#CCCCCC"/>
</svg>
