<svg width="101" height="108" viewBox="0 0 101 108" fill="none" xmlns="http://www.w3.org/2000/svg">
<path d="M91.522 107.064H9.52197C7.13586 107.061 4.84825 106.112 3.16101 104.425C1.47377 102.738 0.524701 100.45 0.521973 98.0638V9.06384C0.524699 6.67773 1.47377 4.39015 3.16101 2.70291C4.84825 1.01567 7.13586 0.0665689 9.52197 0.0638428H91.522C93.9081 0.0665715 96.1956 1.01568 97.8829 2.70291C99.5701 4.39015 100.519 6.67773 100.522 9.06384V98.0638C100.519 100.45 99.5701 102.738 97.8829 104.425C96.1956 106.112 93.9081 107.061 91.522 107.064V107.064ZM9.52197 2.06384C7.6661 2.06592 5.88683 2.80409 4.57452 4.11639C3.26222 5.4287 2.52405 7.20797 2.52197 9.06384V98.0638C2.52405 99.9197 3.26222 101.699 4.57452 103.011C5.88683 104.324 7.6661 105.062 9.52197 105.064H91.522C93.3778 105.062 95.1571 104.324 96.4694 103.011C97.7817 101.699 98.5199 99.9197 98.522 98.0638V9.06384C98.5199 7.20797 97.7817 5.4287 96.4694 4.11639C95.1571 2.80409 93.3778 2.06592 91.522 2.06384H9.52197Z" fill="#3F3D56"/>
<path d="M26.7268 35.4954H18.7268C17.5337 35.494 16.3899 35.0195 15.5463 34.1759C14.7026 33.3322 14.2281 32.1884 14.2268 30.9954V22.9954C14.2281 21.8023 14.7026 20.6585 15.5463 19.8148C16.3899 18.9712 17.5337 18.4967 18.7268 18.4954H26.7268C27.9199 18.4967 29.0637 18.9712 29.9073 19.8148C30.7509 20.6585 31.2255 21.8023 31.2268 22.9954V30.9954C31.2255 32.1884 30.7509 33.3322 29.9073 34.1759C29.0637 35.0195 27.9199 35.494 26.7268 35.4954V35.4954Z" fill="#CCCCCC"/>
<path d="M85.1968 30.6323H47.8474C47.052 30.6315 46.2895 30.3151 45.7271 29.7527C45.1646 29.1903 44.8483 28.4277 44.8474 27.6323V26.3584C44.8483 25.563 45.1646 24.8005 45.7271 24.238C46.2895 23.6756 47.052 23.3593 47.8474 23.3584H85.1968C85.9922 23.3593 86.7547 23.6756 87.3171 24.238C87.8796 24.8005 88.1959 25.563 88.1968 26.3584V27.6323C88.1959 28.4277 87.8796 29.1903 87.3171 29.7527C86.7547 30.3151 85.9922 30.6315 85.1968 30.6323Z" fill="#CCCCCC"/>
<path d="M85.1968 54.6323H15.8474C15.052 54.6315 14.2895 54.3151 13.7271 53.7527C13.1646 53.1903 12.8483 52.4277 12.8474 51.6323V50.3584C12.8483 49.563 13.1646 48.8005 13.7271 48.238C14.2895 47.6756 15.052 47.3593 15.8474 47.3584H85.1968C85.9922 47.3593 86.7547 47.6756 87.3171 48.238C87.8796 48.8005 88.1959 49.563 88.1968 50.3584V51.6323C88.1959 52.4277 87.8796 53.1903 87.3171 53.7527C86.7547 54.3151 85.9922 54.6315 85.1968 54.6323V54.6323Z" fill="#6C63FF"/>
<path d="M85.1968 71.6323H15.8474C15.052 71.6315 14.2895 71.3151 13.7271 70.7527C13.1646 70.1903 12.8483 69.4277 12.8474 68.6323V67.3584C12.8483 66.563 13.1646 65.8005 13.7271 65.238C14.2895 64.6756 15.052 64.3593 15.8474 64.3584H85.1968C85.9922 64.3593 86.7547 64.6756 87.3171 65.238C87.8796 65.8005 88.1959 66.563 88.1968 67.3584V68.6323C88.1959 69.4277 87.8796 70.1903 87.3171 70.7527C86.7547 71.3151 85.9922 71.6315 85.1968 71.6323V71.6323Z" fill="#CCCCCC"/>
<path d="M85.1968 88.6323H15.8474C15.052 88.6315 14.2895 88.3151 13.7271 87.7527C13.1646 87.1903 12.8483 86.4277 12.8474 85.6323V84.3584C12.8483 83.563 13.1646 82.8005 13.7271 82.238C14.2895 81.6756 15.052 81.3593 15.8474 81.3584H85.1968C85.9922 81.3593 86.7547 81.6756 87.3171 82.238C87.8796 82.8005 88.1959 83.563 88.1968 84.3584V85.6323C88.1959 86.4277 87.8796 87.1903 87.3171 87.7527C86.7547 88.3151 85.9922 88.6315 85.1968 88.6323V88.6323Z" fill="#CCCCCC"/>
</svg>
