<svg width="101" height="108" viewBox="0 0 101 108" fill="none" xmlns="http://www.w3.org/2000/svg">
<path d="M91.5221 107.064H9.52209C7.13598 107.061 4.84837 106.112 3.16113 104.425C1.4739 102.738 0.524823 100.45 0.522095 98.0638V9.06384C0.524821 6.67773 1.4739 4.39015 3.16113 2.70291C4.84837 1.01567 7.13598 0.0665689 9.52209 0.0638428H91.5221C93.9082 0.0665715 96.1958 1.01568 97.883 2.70291C99.5702 4.39015 100.519 6.67773 100.522 9.06384V98.0638C100.519 100.45 99.5702 102.738 97.883 104.425C96.1958 106.112 93.9082 107.061 91.5221 107.064V107.064ZM9.52209 2.06384C7.66622 2.06592 5.88695 2.80409 4.57465 4.11639C3.26234 5.4287 2.52417 7.20797 2.52209 9.06384V98.0638C2.52418 99.9197 3.26234 101.699 4.57465 103.011C5.88695 104.324 7.66622 105.062 9.52209 105.064H91.5221C93.378 105.062 95.1572 104.324 96.4695 103.011C97.7818 101.699 98.52 99.9197 98.5221 98.0638V9.06384C98.52 7.20797 97.7818 5.4287 96.4695 4.11639C95.1572 2.80409 93.378 2.06592 91.5221 2.06384H9.52209Z" fill="#3F3D56"/>
<path d="M85.1968 30.6323H47.8474C47.052 30.6315 46.2895 30.3151 45.7271 29.7527C45.1646 29.1903 44.8483 28.4277 44.8474 27.6323V26.3584C44.8483 25.563 45.1646 24.8005 45.7271 24.238C46.2895 23.6756 47.052 23.3593 47.8474 23.3584H85.1968C85.9922 23.3593 86.7547 23.6756 87.3171 24.238C87.8796 24.8005 88.1959 25.563 88.1968 26.3584V27.6323C88.1959 28.4277 87.8796 29.1903 87.3171 29.7527C86.7547 30.3151 85.9922 30.6315 85.1968 30.6323V30.6323Z" fill="#CCCCCC"/>
<path d="M85.1968 54.6323H15.8474C15.052 54.6315 14.2895 54.3151 13.7271 53.7527C13.1646 53.1903 12.8483 52.4277 12.8474 51.6323V50.3584C12.8483 49.563 13.1646 48.8005 13.7271 48.238C14.2895 47.6756 15.052 47.3593 15.8474 47.3584H85.1968C85.9922 47.3593 86.7547 47.6756 87.3171 48.238C87.8796 48.8005 88.1959 49.563 88.1968 50.3584V51.6323C88.1959 52.4277 87.8796 53.1903 87.3171 53.7527C86.7547 54.3151 85.9922 54.6315 85.1968 54.6323Z" fill="#CCCCCC"/>
<path d="M85.1968 71.6323H15.8474C15.052 71.6315 14.2895 71.3151 13.7271 70.7527C13.1646 70.1903 12.8483 69.4277 12.8474 68.6323V67.3584C12.8483 66.563 13.1646 65.8005 13.7271 65.238C14.2895 64.6756 15.052 64.3593 15.8474 64.3584H85.1968C85.9922 64.3593 86.7547 64.6756 87.3171 65.238C87.8796 65.8005 88.1959 66.563 88.1968 67.3584V68.6323C88.1959 69.4277 87.8796 70.1903 87.3171 70.7527C86.7547 71.3151 85.9922 71.6315 85.1968 71.6323Z" fill="#CCCCCC"/>
<path d="M85.1968 88.6323H15.8474C15.052 88.6315 14.2895 88.3151 13.7271 87.7527C13.1646 87.1903 12.8483 86.4277 12.8474 85.6323V84.3584C12.8483 83.563 13.1646 82.8005 13.7271 82.238C14.2895 81.6756 15.052 81.3593 15.8474 81.3584H85.1968C85.9922 81.3593 86.7547 81.6756 87.3171 82.238C87.8796 82.8005 88.1959 83.563 88.1968 84.3584V85.6323C88.1959 86.4277 87.8796 87.1903 87.3171 87.7527C86.7547 88.3151 85.9922 88.6315 85.1968 88.6323Z" fill="#CCCCCC"/>
<path d="M31.5187 26.0638C31.5187 26.0408 31.5221 26.0185 31.5221 25.9954C31.5221 24.8135 31.2893 23.6431 30.837 22.5512C30.3847 21.4593 29.7218 20.4671 28.8861 19.6314C28.0504 18.7956 27.0582 18.1327 25.9663 17.6804C24.8744 17.2281 23.704 16.9953 22.5221 16.9954V26.0638H31.5187Z" fill="#6C63FF"/>
<path d="M21.5221 27.0638V17.9954C19.7448 17.9947 18.0072 18.5203 16.5282 19.5059C15.0492 20.4914 13.8952 21.8927 13.2115 23.5332C12.5278 25.1737 12.3451 26.9799 12.6865 28.7241C13.0279 30.4682 13.878 32.0723 15.1297 33.334C16.3814 34.5957 17.9786 35.4585 19.72 35.8138C21.4613 36.169 23.269 36.0007 24.9148 35.3301C26.5607 34.6595 27.9712 33.5166 28.9684 32.0455C29.9657 30.5745 30.5051 28.841 30.5187 27.0638H21.5221Z" fill="#CCCCCC"/>
</svg>
