<svg width="951" height="720" viewBox="0 0 951 720" fill="none" xmlns="http://www.w3.org/2000/svg">
<g clip-path="url(#clip0)">
<path d="M328.263 0L501.582 193.44C492.264 200.67 484.534 209.741 478.873 220.088C473.213 230.435 469.743 241.837 468.681 253.583C467.619 265.33 468.986 277.169 472.699 288.364C476.411 299.558 482.388 309.869 490.259 318.653C498.129 327.437 507.724 334.507 518.446 339.422C529.167 344.337 540.786 346.991 552.578 347.221C564.37 347.45 576.084 345.249 586.988 340.755C597.893 336.26 607.755 329.569 615.961 321.098L857.385 590.549C787.779 644.645 702.102 673.951 613.945 673.819C394.417 673.819 216.455 495.86 216.455 276.337C216.323 173.181 256.435 74.0416 328.263 0V0Z" fill="#F2F2F2"/>
<path d="M551.308 317.604C522.667 317.604 499.45 294.387 499.45 265.748C499.45 237.108 522.667 213.891 551.308 213.891C579.948 213.891 603.165 237.108 603.165 265.748C603.165 294.387 579.948 317.604 551.308 317.604Z" fill="#F2F2F2"/>
<path d="M296.686 362.027H863.273V719.027H296.686V362.027Z" fill="#3F3D56"/>
<path d="M241.013 185.058C241.013 185.058 277.532 183.578 278.519 221.082C279.506 258.587 278.519 290.663 278.519 290.663H205.482V223.056C205.482 223.056 206.962 187.525 241.013 185.058Z" fill="#2F2E41"/>
<path d="M255.268 251.897C255.268 251.897 253.1 276.468 260.327 278.636C267.554 280.804 257.436 311.879 257.436 311.879L228.529 318.383L211.907 285.14L219.134 275.746C219.134 275.746 231.42 259.124 225.638 247.561C219.857 235.999 255.268 251.897 255.268 251.897Z" fill="#FFB9B9"/>
<path opacity="0.1" d="M255.268 251.897C255.268 251.897 253.1 276.468 260.327 278.636C267.554 280.804 257.436 311.879 257.436 311.879L228.529 318.383L211.907 285.14L219.134 275.746C219.134 275.746 231.42 259.124 225.638 247.561C219.857 235.999 255.268 251.897 255.268 251.897Z" fill="black"/>
<path d="M245.151 263.46C229.585 263.46 216.966 250.842 216.966 235.276C216.966 219.71 229.585 207.092 245.151 207.092C260.717 207.092 273.335 219.71 273.335 235.276C273.335 250.842 260.717 263.46 245.151 263.46Z" fill="#FFB9B9"/>
<path d="M354.999 332.114C354.999 332.114 372.344 345.122 367.285 355.24C362.226 365.357 347.05 400.046 347.05 400.046C347.05 400.046 344.159 426.784 331.873 425.339C319.588 423.894 331.873 397.155 331.873 397.155L347.05 355.962L341.991 348.013L354.999 332.114Z" fill="#FFB9B9"/>
<path d="M120.848 336.45C120.848 336.45 101.336 351.626 112.899 357.408C124.462 363.189 173.605 390.651 173.605 390.651C173.605 390.651 203.235 413.054 206.848 395.709C210.462 378.365 187.336 379.088 187.336 379.088C187.336 379.088 141.084 350.904 138.916 345.122C136.748 339.341 120.848 336.45 120.848 336.45Z" fill="#FFB9B9"/>
<path d="M292.848 435.456C292.848 435.456 302.243 486.766 297.184 515.673C294.206 533.667 294.697 552.064 298.63 569.874L270.445 572.764C270.445 572.764 252.378 465.809 242.26 466.531C232.142 467.254 210.462 574.21 210.462 574.21L180.109 569.874C180.109 569.874 189.504 522.177 185.168 507.724C180.832 493.27 183.722 441.238 194.563 435.456C205.403 429.675 292.848 435.456 292.848 435.456Z" fill="#575A89"/>
<path d="M267.554 569.874C267.554 569.874 300.075 559.034 302.966 566.983C305.857 574.933 305.134 663.821 304.411 669.603C303.689 675.384 301.521 672.494 303.689 675.384C305.857 678.275 305.857 671.771 305.134 679.72C304.411 687.67 303.689 689.115 303.689 689.115C303.689 689.115 316.697 719.467 293.571 718.745C270.445 718.022 281.285 696.342 281.285 696.342C281.285 696.342 277.672 689.838 279.84 686.224C282.008 682.611 282.731 676.829 279.84 673.939C276.949 671.048 282.731 665.267 283.453 663.099C284.176 660.931 286.344 661.653 280.562 654.427C274.781 647.2 277.672 643.586 278.394 641.418C279.117 639.25 273.336 626.242 273.336 626.242L267.554 569.874Z" fill="#2F2E41"/>
<path d="M212.63 569.874C212.63 569.874 180.109 559.034 177.218 566.983C174.327 574.933 175.05 663.821 175.773 669.603C176.495 675.384 178.664 672.494 176.495 675.384C174.327 678.275 174.327 671.771 175.05 679.72C175.773 687.67 176.495 689.115 176.495 689.115C176.495 689.115 163.487 719.467 186.613 718.745C209.739 718.022 198.899 696.342 198.899 696.342C198.899 696.342 202.512 689.838 200.344 686.224C198.176 682.611 197.453 676.83 200.344 673.939C203.235 671.048 197.453 665.267 196.731 663.099C196.008 660.931 193.84 661.653 199.621 654.427C205.403 647.2 202.512 643.587 201.79 641.419C201.067 639.251 206.848 626.242 206.848 626.242L212.63 569.874Z" fill="#2F2E41"/>
<path d="M243.705 301.762C243.705 301.762 248.764 286.586 251.655 283.695C254.546 280.805 256.421 273.324 256.421 273.324C256.421 273.324 272.613 279.359 276.949 280.804C281.285 282.25 295.739 282.25 295.739 284.418V330.669C295.739 330.669 297.184 340.064 294.294 363.912C291.403 387.76 282.731 402.214 292.848 412.331C302.966 422.448 294.294 447.019 289.235 451.355C284.176 455.691 185.89 478.094 185.168 425.339C185.168 425.339 209.016 383.424 198.899 369.693C188.781 355.963 180.109 332.837 180.109 332.837V286.586C180.109 286.586 196.008 281.527 201.067 280.804C206.126 280.082 218.411 266.351 219.857 267.074C221.302 267.796 224.095 267.046 224.095 267.046L224.193 277.191L243.705 301.762Z" fill="#6C63FF"/>
<path d="M285.621 288.031L295.739 284.418C295.739 284.418 308.025 290.922 308.025 292.367C308.025 293.812 315.251 300.317 318.865 303.207C322.478 306.098 332.596 306.821 332.596 308.266C332.596 309.711 364.394 332.837 361.503 336.45C358.613 340.064 349.218 353.072 344.159 353.072C339.1 353.072 326.814 340.064 324.646 339.341C322.478 338.618 300.075 324.887 292.848 327.055C285.621 329.223 285.621 288.031 285.621 288.031Z" fill="#6C63FF"/>
<path d="M193.84 289.476L180.109 286.586C180.109 286.586 154.092 306.098 153.369 306.821C152.647 307.543 112.176 333.559 114.344 338.618C116.512 343.677 139.638 350.904 145.42 348.736C151.201 346.568 175.773 328.501 185.168 330.669C194.563 332.837 193.84 289.476 193.84 289.476Z" fill="#6C63FF"/>
<path d="M215.159 226.243C211.728 211.833 213.131 208.005 213.131 208.005L257.052 197.148L272.35 211.953V227.251L270.806 232.024C270.806 232.024 264.454 227.251 266.922 220.342C266.922 220.342 217.627 236.606 215.159 226.243Z" fill="#2F2E41"/>
<path d="M214.612 218.176L218.773 222.629C212.211 222.709 220.951 275.517 218.05 284.056L207.21 284.303V213.961L214.612 218.176Z" fill="#2F2E41"/>
<path d="M272.251 235.637C271.054 235.637 270.083 233.534 270.083 230.94C270.083 228.346 271.054 226.242 272.251 226.242C273.449 226.242 274.419 228.346 274.419 230.94C274.419 233.534 273.449 235.637 272.251 235.637Z" fill="#FFB9B9"/>
<path d="M216.605 235.637C215.407 235.637 214.437 233.534 214.437 230.94C214.437 228.346 215.407 226.242 216.605 226.242C217.802 226.242 218.773 228.346 218.773 230.94C218.773 233.534 217.802 235.637 216.605 235.637Z" fill="#FFB9B9"/>
<path d="M608.872 637.738L610.17 636.44L554.365 580.636L603.744 531.258L602.447 529.96L551.769 580.636L608.872 637.738Z" fill="#2F2E41"/>
<path d="M556.28 600.372C545.633 600.372 537.003 591.741 537.003 581.095C537.003 570.449 545.633 561.818 556.28 561.818C566.926 561.818 575.557 570.449 575.557 581.095C575.557 591.741 566.926 600.372 556.28 600.372Z" fill="#6C63FF"/>
<path d="M606.767 656.366C596.121 656.366 587.49 647.735 587.49 637.089C587.49 626.443 596.121 617.812 606.767 617.812C617.414 617.812 626.044 626.443 626.044 637.089C626.044 647.735 617.414 656.366 606.767 656.366Z" fill="#6C63FF"/>
<path d="M605.201 531.258L606.499 529.96L550.693 474.156L600.073 424.777L598.775 423.479L548.097 474.156L605.201 531.258Z" fill="#2F2E41"/>
<path d="M599.424 443.405C588.777 443.405 580.147 434.774 580.147 424.128C580.147 413.482 588.777 404.851 599.424 404.851C610.07 404.851 618.701 413.482 618.701 424.128C618.701 434.774 610.07 443.405 599.424 443.405Z" fill="#6C63FF"/>
<path d="M552.608 493.891C541.962 493.891 533.331 485.261 533.331 474.615C533.331 463.968 541.962 455.338 552.608 455.338C563.255 455.338 571.885 463.968 571.885 474.615C571.885 485.261 563.255 493.891 552.608 493.891Z" fill="#6C63FF"/>
<path d="M603.096 549.885C592.449 549.885 583.819 541.255 583.819 530.609C583.819 519.962 592.449 511.332 603.096 511.332C613.742 511.332 622.373 519.962 622.373 530.609C622.373 541.255 613.742 549.885 603.096 549.885Z" fill="#6C63FF"/>
<path opacity="0.3" d="M742.625 384.657H838.092V402.098H742.625V384.657Z" fill="#6C63FF"/>
<path opacity="0.3" d="M361.674 582.013H457.141V586.603H361.674V582.013Z" fill="#6C63FF"/>
<path opacity="0.3" d="M361.674 595.782H457.141V600.372H361.674V595.782Z" fill="#6C63FF"/>
<path opacity="0.3" d="M361.674 609.551H457.141V614.141H361.674V609.551Z" fill="#6C63FF"/>
<path opacity="0.3" d="M361.674 623.32H457.141V627.91H361.674V623.32Z" fill="#6C63FF"/>
<path opacity="0.3" d="M361.674 637.089H457.141V641.679H361.674V637.089Z" fill="#6C63FF"/>
<path opacity="0.3" d="M361.674 650.858H457.141V655.448H361.674V650.858Z" fill="#6C63FF"/>
<path d="M889.719 682.009C883.372 705.47 861.633 720 861.633 720C861.633 720 850.185 696.492 856.531 673.032C862.878 649.571 884.617 635.041 884.617 635.041C884.617 635.041 896.066 658.549 889.719 682.009Z" fill="#3F3D56"/>
<path d="M880.393 676.967C862.978 693.92 860.85 719.981 860.85 719.981C860.85 719.981 886.959 718.555 904.375 701.602C921.79 684.65 923.917 658.589 923.917 658.589C923.917 658.589 897.809 660.014 880.393 676.967Z" fill="#6C63FF"/>
<path d="M0 717.867H951V719.703H0V717.867Z" fill="#3F3D56"/>
<path d="M52.7823 661.393C52.7874 657.325 54.0193 653.353 56.3171 649.996C58.6149 646.639 61.8718 644.053 65.6623 642.576C61.2717 640.869 57.6156 637.682 55.3268 633.565C53.0379 629.448 52.2602 624.661 53.1281 620.031C53.9961 615.402 56.4552 611.221 60.0799 608.213C63.7046 605.204 68.2669 603.558 72.9773 603.558C77.6878 603.558 82.25 605.204 85.8747 608.213C89.4994 611.221 91.9585 615.402 92.8265 620.031C93.6945 624.661 92.9168 629.448 90.6279 633.565C88.339 637.682 84.683 640.869 80.2924 642.576C84.0858 644.049 87.3455 646.634 89.644 649.992C91.9424 653.35 93.1723 657.324 93.1723 661.393C93.1723 665.463 91.9424 669.437 89.644 672.795C87.3455 676.153 84.0858 678.738 80.2924 680.211C84.683 681.917 88.339 685.104 90.6279 689.221C92.9168 693.338 93.6945 698.126 92.8265 702.755C91.9585 707.385 89.4994 711.566 85.8747 714.574C82.25 717.582 77.6878 719.229 72.9773 719.229C68.2669 719.229 63.7046 717.582 60.0799 714.574C56.4552 711.566 53.9961 707.385 53.1281 702.755C52.2602 698.126 53.0379 693.338 55.3268 689.221C57.6156 685.104 61.2717 681.917 65.6623 680.211C61.8718 678.734 58.6149 676.148 56.3171 672.791C54.0193 669.434 52.7874 665.461 52.7823 661.393ZM91.3364 623.758C91.3393 620.304 90.3678 616.919 88.5335 613.993C86.6992 611.066 84.0765 608.716 80.9667 607.213C77.857 605.71 74.3862 605.115 70.9533 605.496C67.5203 605.877 64.2645 607.218 61.5597 609.366C58.8549 611.514 56.8109 614.381 55.6626 617.639C54.5143 620.896 54.3081 624.412 55.0679 627.781C55.8277 631.15 57.5226 634.237 59.9578 636.686C62.393 639.136 65.4698 640.848 68.8347 641.628C71.5668 641.056 74.3878 641.056 77.12 641.628C81.1578 640.689 84.7596 638.413 87.3404 635.169C89.9212 631.925 91.3295 627.903 91.3364 623.758V623.758ZM54.6182 699.029C54.6153 702.483 55.5869 705.867 57.4212 708.794C59.2555 711.72 61.8781 714.07 64.9879 715.573C68.0977 717.076 71.5684 717.672 75.0014 717.291C78.4343 716.91 81.6902 715.569 84.3949 713.421C87.0997 711.273 89.1437 708.405 90.2921 705.148C91.4404 701.89 91.6465 698.375 90.8867 695.006C90.127 691.636 88.4321 688.55 85.9969 686.1C83.5617 683.651 80.4849 681.938 77.12 681.159C74.3878 681.731 71.5668 681.731 68.8347 681.159C64.7969 682.098 61.1951 684.374 58.6142 687.618C56.0334 690.862 54.6252 694.883 54.6182 699.029V699.029ZM68.8347 679.263C71.5668 678.691 74.3878 678.691 77.12 679.263C81.1611 678.331 84.7668 676.056 87.3488 672.811C89.9307 669.565 91.3364 665.541 91.3364 661.393C91.3364 657.246 89.9307 653.221 87.3488 649.976C84.7668 646.731 81.1611 644.456 77.12 643.524C74.3878 644.096 71.5668 644.096 68.8347 643.524C64.7936 644.456 61.1878 646.731 58.6058 649.976C56.0239 653.221 54.6182 657.246 54.6182 661.393C54.6182 665.541 56.0239 669.565 58.6058 672.811C61.1878 676.056 64.7936 678.331 68.8347 679.263V679.263Z" fill="#3F3D56"/>
<path d="M853.238 327.265C857.232 327.265 861.137 326.08 864.458 323.861C867.779 321.642 870.367 318.488 871.896 314.798C873.424 311.108 873.824 307.048 873.045 303.13C872.266 299.213 870.342 295.615 867.518 292.79C864.694 289.966 861.095 288.043 857.178 287.264C853.261 286.484 849.2 286.884 845.51 288.413C841.82 289.941 838.666 292.53 836.447 295.851C834.228 299.172 833.043 303.076 833.043 307.07C833.049 312.424 835.179 317.557 838.965 321.343C842.751 325.129 847.884 327.259 853.238 327.265V327.265ZM853.238 288.711C856.869 288.711 860.419 289.788 863.438 291.805C866.457 293.823 868.81 296.69 870.2 300.044C871.589 303.399 871.953 307.09 871.244 310.652C870.536 314.213 868.788 317.484 866.22 320.052C863.652 322.619 860.381 324.368 856.82 325.076C853.258 325.784 849.567 325.421 846.212 324.031C842.858 322.642 839.99 320.289 837.973 317.27C835.956 314.251 834.879 310.701 834.879 307.07C834.884 302.203 836.82 297.536 840.262 294.094C843.704 290.653 848.371 288.717 853.238 288.711V288.711Z" fill="#3F3D56"/>
<path d="M424.554 126.237C428.548 126.237 432.452 125.052 435.773 122.833C439.094 120.614 441.683 117.46 443.211 113.77C444.74 110.08 445.14 106.02 444.36 102.102C443.581 98.1851 441.658 94.5868 438.834 91.7625C436.009 88.9383 432.411 87.0149 428.493 86.2357C424.576 85.4565 420.515 85.8564 416.825 87.3849C413.135 88.9134 409.981 91.5018 407.762 94.8227C405.543 98.1437 404.359 102.048 404.359 106.042C404.365 111.396 406.494 116.529 410.28 120.315C414.066 124.101 419.199 126.231 424.554 126.237V126.237ZM424.554 87.6835C428.185 87.6835 431.734 88.7603 434.753 90.7775C437.772 92.7948 440.126 95.6621 441.515 99.0167C442.905 102.371 443.268 106.063 442.56 109.624C441.851 113.185 440.103 116.456 437.535 119.024C434.968 121.591 431.697 123.34 428.135 124.048C424.574 124.757 420.883 124.393 417.528 123.003C414.173 121.614 411.306 119.261 409.289 116.242C407.271 113.223 406.194 109.673 406.194 106.042C406.2 101.175 408.136 96.5084 411.578 93.0667C415.02 89.6249 419.686 87.689 424.554 87.6835V87.6835Z" fill="#3F3D56"/>
</g>
<defs>
<clipPath id="clip0">
<rect width="951" height="720" fill="white" transform="matrix(-1 0 0 1 951 0)"/>
</clipPath>
</defs>
</svg>
