<svg width="216" height="288" viewBox="0 0 216 288" fill="none" xmlns="http://www.w3.org/2000/svg">
<path d="M167.114 177.258H119.104C119.104 178.638 69.6244 179.758 69.6244 179.758C68.8478 180.343 68.14 181.014 67.5146 181.758C65.6352 184 64.6079 186.833 64.6142 189.758V191.758C64.6154 195.073 65.9327 198.252 68.2766 200.596C70.6206 202.94 73.7993 204.257 77.1142 204.258H167.114C170.428 204.255 173.606 202.938 175.95 200.594C178.293 198.25 179.611 195.073 179.614 191.758V189.758C179.61 186.445 178.291 183.268 175.948 180.925C173.605 178.581 170.428 177.263 167.114 177.258V177.258Z" fill="#3F3D56"/>
<path d="M129.109 203.762H116.109V287.762H129.109V203.762Z" fill="#3F3D56"/>
<path d="M166 287.216C166 288.584 146.301 287.745 122 287.745C97.6995 287.745 78 288.584 78 287.216C78 285.848 97.6995 275 122 275C146.301 275 166 285.848 166 287.216Z" fill="#3F3D56"/>
<path d="M57.1 276.257L44.8401 276.256L39.0071 228.968L57.1021 228.969L57.1 276.257Z" fill="#FFB8B8"/>
<path d="M36.0682 273H60V288H21C21 284.022 22.5876 280.206 25.4134 277.393C28.2392 274.58 32.0719 273 36.0682 273V273Z" fill="#2F2E41"/>
<path d="M37.962 269.414L26.265 265.743L34.857 218.878L52.121 224.296L37.962 269.414Z" fill="#FFB8B8"/>
<path d="M18.9583 259.779L41.5174 266.859L37.06 281.063L0.296996 269.526C0.882348 267.661 1.82935 265.929 3.08396 264.43C4.33856 262.93 5.87618 261.693 7.60904 260.788C9.3419 259.883 11.2361 259.328 13.1834 259.155C15.1307 258.982 17.093 259.194 18.9583 259.779V259.779Z" fill="#2F2E41"/>
<path d="M134.28 169.061C133.997 166.678 133.488 164.328 132.76 162.041L130.47 159.161L124.51 151.681L124.251 151.691C123.81 151.711 121.98 151.811 119.151 152.031H119.12C117.37 152.171 115.23 152.351 112.8 152.581C112.16 152.651 111.49 152.711 110.8 152.781V163.221H123.3C123.908 163.222 124.494 163.443 124.951 163.845C125.407 164.246 125.702 164.799 125.78 165.401C125.79 165.511 125.8 165.611 125.8 165.721C125.8 166.384 125.537 167.02 125.068 167.489C124.599 167.957 123.963 168.221 123.3 168.221H50.7004C49.7753 168.835 48.8871 169.503 48.0402 170.221C45.4826 172.201 43.6396 174.96 42.7902 178.081C38.5505 196.721 30.8205 231.481 28.5402 241.691C28.3749 242.46 28.4125 243.259 28.6492 244.01C28.8859 244.76 29.3136 245.436 29.8903 245.971C30.316 246.368 30.8155 246.677 31.3605 246.881L40.3806 250.261C40.7513 250.398 41.1374 250.489 41.5304 250.531C41.5802 250.531 41.6203 250.541 41.6706 250.541C41.7636 250.55 41.857 250.553 41.9503 250.551C42.8624 250.548 43.7521 250.269 44.5032 249.751C45.2544 249.234 45.8319 248.502 46.1604 247.651L53.2805 228.971L64.2507 200.171L68.5905 188.781C73.6203 189.961 115.821 199.301 129.95 184.251C131.344 182.768 132.444 181.034 133.191 179.141C134.38 175.922 134.754 172.46 134.28 169.061Z" fill="#2F2E41"/>
<path d="M146.52 171.781C146.301 170.891 146.051 169.971 145.761 169.041L137.511 158.681L137.251 158.691C136.73 158.721 134.261 158.851 130.47 159.161C126.171 159.521 120.16 160.101 113.41 161.011C113.211 161.031 113.001 161.061 112.801 161.091C112.14 161.181 111.47 161.271 110.801 161.371V163.221H123.301C123.908 163.222 124.495 163.443 124.951 163.845C125.407 164.246 125.702 164.799 125.781 165.401C125.79 165.511 125.801 165.611 125.801 165.721C125.8 166.384 125.537 167.02 125.068 167.489C124.599 167.957 123.964 168.221 123.301 168.221H79.1204C77.1908 168.851 75.3304 169.511 73.5506 170.221C64.2107 173.921 57.2205 178.771 55.7904 185.081C55.3104 187.201 54.7805 189.531 54.2205 192.011C52.1404 201.231 49.6107 212.521 47.3206 222.781V222.791C46.8504 224.911 46.3806 226.971 45.9304 228.971C44.0203 237.571 42.4007 244.861 41.5404 248.691C41.5204 248.801 41.5008 248.901 41.4803 249.011V249.031C41.3806 249.806 41.4769 250.593 41.7605 251.321L41.7704 251.331V251.341C42.0454 252.038 42.4928 252.654 43.0706 253.131C43.4569 253.45 43.8926 253.703 44.3606 253.881L53.3806 257.261C53.8829 257.449 54.4142 257.547 54.9504 257.551C55.7021 257.553 56.4419 257.364 57.1004 257.001C58.0457 256.489 58.7764 255.655 59.1604 254.651L78.5803 203.691L81.5906 195.781C86.6204 196.961 128.821 206.291 142.95 191.251C145.742 188.23 147.335 184.294 147.43 180.181C147.529 177.352 147.223 174.523 146.52 171.781V171.781Z" fill="#2F2E41"/>
<path d="M145.41 83.5612C145.251 83.3712 145.08 83.1812 144.901 83.0012C142.237 80.2011 138.948 78.0716 135.303 76.7872C131.658 75.5027 127.761 75.0997 123.93 75.6112C120.589 76.0501 117.279 76.7014 114.02 77.5612C109.812 78.6433 105.958 80.8044 102.841 83.8311C100.412 86.1859 98.4992 89.0196 97.2235 92.1527C95.9479 95.2857 95.3373 98.6496 95.4304 102.031C95.4704 103.401 95.4803 104.801 95.4607 106.221C95.4607 106.881 95.4504 107.551 95.4407 108.221H105.301C105.728 108.22 106.155 108.27 106.571 108.371C107.774 108.659 108.845 109.343 109.613 110.313C110.38 111.284 110.798 112.484 110.801 113.721V160.241C111.47 160.431 112.14 160.621 112.801 160.821C113.011 160.891 113.211 160.951 113.41 161.011C113.64 161.081 113.87 161.151 114.091 161.221C116.12 161.851 118.104 162.518 120.04 163.221H123.301C123.908 163.222 124.494 163.443 124.951 163.845C125.407 164.246 125.702 164.799 125.781 165.401C126.461 165.671 127.12 165.941 127.77 166.211C130.08 167.171 132.27 168.131 134.281 169.061C136.991 170.301 139.401 171.481 141.421 172.511C142.056 172.835 142.758 173.006 143.47 173.011C144.407 173.008 145.317 172.707 146.071 172.151C146.227 172.036 146.377 171.912 146.52 171.781C147.055 171.279 147.46 170.655 147.699 169.961C147.938 169.267 148.003 168.526 147.89 167.801C146.858 159.946 146.557 152.012 146.991 144.101C147.27 137.451 147.87 130.631 148.651 124.041C149.071 120.471 149.54 116.971 150.031 113.601C150.501 110.381 151.001 107.291 151.491 104.371C152.133 100.668 151.92 96.8677 150.866 93.2604C149.812 89.6532 147.946 86.3353 145.41 83.5612Z" fill="#6C63FF"/>
<path d="M104.421 84.3812C103.908 84.1609 103.38 83.9771 102.841 83.8312C100.176 83.1136 97.3415 83.3784 94.8557 84.5772C92.3699 85.7761 90.3981 87.829 89.3005 90.3612L82.4304 106.221L81.5706 108.221H105.301C105.728 108.22 106.155 108.27 106.571 108.371L107.37 106.521L110.41 99.5012C111.618 96.7015 111.665 93.5371 110.542 90.7025C109.42 87.8678 107.218 85.5944 104.421 84.3812V84.3812Z" fill="#6C63FF"/>
<path d="M125.756 67.8026C139.321 67.8026 150.317 56.8062 150.317 43.2416C150.317 29.6769 139.321 18.6805 125.756 18.6805C112.192 18.6805 101.195 29.6769 101.195 43.2416C101.195 56.8062 112.192 67.8026 125.756 67.8026Z" fill="#FFB8B8"/>
<path d="M150.031 113.601L136.011 113.981L134.991 123.831L134.761 126.111L112.801 135.971L110.801 136.871V154.401L112.801 153.831L119.12 152.031H119.151L146.99 144.101L147.31 144.011C149.56 143.362 151.54 142.004 152.956 140.139C154.372 138.274 155.149 136.003 155.171 133.661L155.24 122.031L155.301 113.461L150.031 113.601Z" fill="#FFB8B8"/>
<path d="M154.591 94.1212C154.498 92.6137 154.109 91.1391 153.447 89.7817C152.784 88.4243 151.861 87.2107 150.73 86.2101C148.444 84.1894 145.45 83.1593 142.405 83.3462C139.361 83.5332 136.515 84.922 134.494 87.2071C132.474 89.4923 131.444 92.4865 131.631 95.5312L133.16 120.491C133.202 121.148 133.387 121.788 133.703 122.365C134.02 122.942 134.459 123.443 134.99 123.831C135.836 124.461 136.878 124.77 137.93 124.701L148.651 124.041L151.901 123.841C152.493 123.812 153.072 123.663 153.605 123.404C154.138 123.144 154.613 122.779 155.001 122.331C155.087 122.236 155.167 122.136 155.24 122.031C155.876 121.18 156.188 120.131 156.12 119.071L154.591 94.1212Z" fill="#6C63FF"/>
<path d="M114.091 161.221H112.801V161.091C112.14 161.181 111.47 161.271 110.801 161.371V163.221H120.04C118.1 162.521 116.117 161.854 114.091 161.221ZM114.091 161.221H112.801V161.091C112.14 161.181 111.47 161.271 110.801 161.371V163.221H120.04C118.1 162.521 116.117 161.854 114.091 161.221ZM123.301 161.221H112.801V113.721C112.797 112.095 112.266 110.514 111.286 109.215C110.307 107.917 108.933 106.972 107.37 106.521C106.699 106.319 106.002 106.218 105.301 106.221H16.3005C14.3121 106.224 12.4059 107.014 10.9999 108.42C9.59387 109.826 8.80293 111.733 8.80054 113.721V162.721C8.80124 164.71 9.59168 166.617 10.998 168.024C12.4044 169.43 14.3116 170.22 16.3005 170.221H123.301C124.408 170.219 125.476 169.809 126.301 169.07C127.126 168.33 127.649 167.312 127.77 166.211C127.791 166.049 127.801 165.885 127.801 165.721C127.799 164.528 127.324 163.385 126.481 162.541C125.637 161.698 124.493 161.223 123.3 161.221H123.301ZM125.801 165.721C125.8 166.384 125.537 167.02 125.068 167.489C124.599 167.957 123.963 168.221 123.301 168.221H16.3005C14.8421 168.22 13.4437 167.641 12.4124 166.609C11.3812 165.578 10.8014 164.18 10.8005 162.721V113.721C10.8014 112.263 11.3812 110.864 12.4124 109.833C13.4437 108.802 14.8421 108.222 16.3005 108.221H105.301C105.728 108.22 106.155 108.27 106.571 108.371C107.774 108.659 108.845 109.343 109.613 110.313C110.38 111.284 110.798 112.484 110.801 113.721V163.221H123.301C123.908 163.222 124.494 163.444 124.951 163.845C125.407 164.246 125.702 164.799 125.781 165.401C125.79 165.511 125.8 165.611 125.8 165.721H125.801ZM114.091 161.221H112.801V161.091C112.14 161.181 111.47 161.271 110.801 161.371V163.221H120.04C118.1 162.521 116.117 161.854 114.091 161.221Z" fill="#3F3D56"/>
<path d="M60.7974 144.223C64.1111 144.223 66.7974 141.536 66.7974 138.223C66.7974 134.909 64.1111 132.223 60.7974 132.223C57.4837 132.223 54.7974 134.909 54.7974 138.223C54.7974 141.536 57.4837 144.223 60.7974 144.223Z" fill="#6C63FF"/>
<path d="M120.512 33.4988C114.807 38.5951 107.159 44.0653 100.173 40.3315C95.5862 37.8799 93.5441 32.5035 94.6154 27.4141C96.5418 18.2618 104.454 13.3167 112.115 9.31921C122.073 4.12249 133.063 -0.409425 144.215 0.941585C155.367 2.29259 166.262 11.5073 165.735 22.7282C165.312 31.7518 157.943 40.1698 160.276 48.897C162.624 57.6802 173.284 61.0814 182.365 61.5282C191.446 61.975 201.442 61.2008 208.645 66.7476C217.834 73.8236 217.687 88.6198 211.145 98.1967C204.604 107.774 193.557 113.163 182.707 117.259C168.331 122.687 152.529 126.609 137.69 122.618C122.851 118.628 109.86 104.391 112.036 89.1795C112.955 82.7542 116.336 76.9863 119.598 71.3748C122.86 65.7634 126.142 59.9123 126.827 53.4578C127.398 48.079 125.689 42.1414 121.722 38.6766C121.004 38.0732 120.495 37.2578 120.27 36.3475C120.044 35.4371 120.112 34.4786 120.466 33.6096L120.512 33.4988Z" fill="#2F2E41"/>
</svg>
