<svg width="181" height="279" viewBox="0 0 181 279" fill="none" xmlns="http://www.w3.org/2000/svg">
<path d="M0.429932 180.687V182.687C0.43281 186 1.75069 189.176 4.09427 191.519C6.43785 193.861 9.61561 195.179 12.9299 195.182H102.93C106.245 195.18 109.423 193.864 111.767 191.521C114.111 189.178 115.429 186 115.43 182.687V180.687C115.436 177.763 114.409 174.931 112.53 172.69C111.904 171.947 111.196 171.276 110.42 170.691C110.42 170.691 60.9397 169.572 60.9397 168.192H12.9299C9.61613 168.197 6.43937 169.515 4.09616 171.857C1.75295 174.199 0.434519 177.375 0.429932 180.687V180.687Z" fill="#3F3D56"/>
<path d="M50.9348 278.652H63.9348L63.9348 194.685H50.9348L50.9348 278.652Z" fill="#3F3D56"/>
<path d="M13.9348 278.196C13.9348 279.6 33.6343 278.739 57.9348 278.739C82.2353 278.739 101.935 279.6 101.935 278.196C101.935 276.792 82.2353 265.657 57.9348 265.657C33.6343 265.657 13.9348 276.792 13.9348 278.196Z" fill="#3F3D56"/>
<path d="M123.53 267.913H135.79L141.622 220.643L123.528 220.644L123.53 267.913Z" fill="#A0616A"/>
<path d="M159.434 278.941L120.904 278.943L120.903 264.412L144.547 264.411C148.495 264.411 152.282 265.941 155.074 268.666C157.866 271.391 159.434 275.087 159.434 278.941L159.434 278.941Z" fill="#2F2E41"/>
<path d="M142.668 261.073L154.365 257.404L145.773 210.557L128.509 215.973L142.668 261.073Z" fill="#A0616A"/>
<path d="M180.333 261.185L143.57 272.717L139.113 258.519L161.672 251.442C165.439 250.26 169.521 250.623 173.021 252.45C176.521 254.277 179.151 257.419 180.333 261.185L180.333 261.185Z" fill="#2F2E41"/>
<path d="M134.466 239.317L112.039 180.469C107.007 181.65 64.8122 190.984 50.6799 175.943C45.8366 170.787 44.892 163.319 47.8723 153.743L56.1198 143.383L56.3762 143.397C59.4946 143.561 132.811 147.669 137.837 169.775C142.075 188.412 149.814 223.159 152.085 233.365C152.315 234.423 152.157 235.528 151.641 236.479C151.124 237.43 150.283 238.164 149.271 238.547L140.251 241.927C139.749 242.116 139.216 242.213 138.679 242.213C137.766 242.213 136.875 241.936 136.123 241.419C135.371 240.902 134.793 240.169 134.466 239.317V239.317Z" fill="#2F2E41"/>
<path d="M121.466 246.314L99.0388 187.466C94.007 188.648 51.8122 197.98 37.6799 182.94C32.8366 177.785 31.892 170.316 34.8723 160.741L43.1198 150.38L43.3762 150.394C46.4946 150.558 119.811 154.666 124.837 176.772C129.075 195.41 136.814 230.157 139.085 240.363C139.315 241.42 139.157 242.525 138.641 243.476C138.124 244.427 137.283 245.161 136.271 245.544L127.251 248.925C126.749 249.114 126.216 249.211 125.679 249.211C124.766 249.21 123.875 248.934 123.123 248.416C122.371 247.899 121.793 247.166 121.466 246.314V246.314Z" fill="#2F2E41"/>
<path d="M101.292 132.141C97.9684 132.14 94.7018 131.276 91.8122 129.634C88.9226 127.992 86.5091 125.628 84.8079 122.773L77.6853 110.712L94.6146 101.463L101.803 111.315L150.577 106.178C150.814 105.749 151.081 105.337 151.376 104.945C152.312 103.714 153.496 102.694 154.853 101.951C156.209 101.208 157.707 100.759 159.249 100.633C160.798 100.5 162.357 100.7 163.821 101.219C165.286 101.739 166.623 102.565 167.742 103.644C169.535 105.363 170.695 107.638 171.033 110.099C171.37 112.56 170.866 115.063 169.602 117.202C168.811 118.534 167.747 119.685 166.48 120.578C165.213 121.471 163.772 122.086 162.25 122.383C160.729 122.681 159.162 122.653 157.652 122.303C156.142 121.953 154.723 121.288 153.488 120.352C153.202 120.133 152.927 119.899 152.665 119.652L105.951 131.558C104.428 131.946 102.863 132.142 101.292 132.141V132.141Z" fill="#A0616A"/>
<path d="M34.5551 163.848C33.8801 163.362 33.3529 162.698 33.032 161.931C32.711 161.164 32.6087 160.323 32.7365 159.501C35.519 141.165 32.3175 114.899 29.1417 96.0931C28.4916 92.2774 28.7446 88.3625 29.8803 84.6621C31.0161 80.9617 33.003 77.5786 35.682 74.7839C38.361 71.9891 41.6575 69.8604 45.3075 68.5682C48.9576 67.276 52.8596 66.8563 56.7011 67.3427C60.0433 67.784 63.3542 68.4365 66.6139 69.2961V69.2961C72.0286 70.6591 76.8181 73.8232 80.1952 78.2682C83.5723 82.7131 85.3358 88.1744 85.1959 93.7542C84.721 111.901 88.4073 134.544 90.0143 143.436C90.1239 144.047 90.1065 144.674 89.9631 145.277C89.8196 145.881 89.5532 146.449 89.1805 146.945C88.8151 147.436 88.3509 147.846 87.8178 148.147C87.2847 148.448 86.6945 148.635 86.0851 148.694C68.277 150.511 49.0728 159.192 39.2105 164.205C38.5767 164.532 37.8743 164.704 37.161 164.706C36.2234 164.703 35.3109 164.402 34.5551 163.848Z" fill="#CCCCCC"/>
<path d="M82.626 116.555C82.0756 116.339 81.5736 116.016 81.149 115.604C80.7244 115.193 80.3856 114.701 80.1523 114.158L70.2209 91.225C69.6196 89.8394 69.2973 88.3489 69.2725 86.8387C69.2478 85.3285 69.5209 83.8283 70.0765 82.4237C70.632 81.0191 71.459 79.7377 72.5102 78.6528C73.5614 77.5678 74.8162 76.7006 76.2029 76.1007C77.5895 75.5007 79.0808 75.1798 80.5916 75.1563C82.1024 75.1328 83.6031 75.4071 85.0077 75.9636C86.4124 76.5201 87.6936 77.3478 88.7781 78.3995C89.8626 79.4512 90.7291 80.7062 91.3281 82.0928L101.26 105.026C101.732 106.121 101.751 107.359 101.312 108.467C100.873 109.576 100.012 110.466 98.9178 110.941L86.0699 116.5C85.528 116.737 84.9446 116.863 84.3534 116.873C83.7623 116.882 83.1751 116.774 82.626 116.555H82.626Z" fill="#CCCCCC"/>
<path d="M54.8733 59.5411C68.438 59.5411 79.4343 48.549 79.4343 34.9897C79.4343 21.4304 68.438 10.4384 54.8733 10.4384C41.3086 10.4384 30.3123 21.4304 30.3123 34.9897C30.3123 48.549 41.3086 59.5411 54.8733 59.5411Z" fill="#A0616A"/>
<path d="M40.0307 56.8018C39.6828 57.2033 39.2579 57.5309 38.7811 57.7654C38.3043 57.9998 37.7852 58.1363 37.2547 58.1668C36.7242 58.1972 36.193 58.1211 35.6925 57.9427C35.1919 57.7644 34.7322 57.4876 34.3406 57.1285C28.8639 52.697 24.5203 47.0269 21.6683 40.5863C18.4753 32.9783 18.0073 23.6939 21.6413 16.5627C24.7133 10.5343 30.2279 6.69692 35.7333 3.56059C37.8438 2.23129 40.1566 1.25413 42.5811 0.667445C43.8057 0.389606 45.0749 0.371195 46.307 0.613389C47.5392 0.855583 48.7069 1.35301 49.7351 2.07366C50.826 2.90295 51.6704 4.01366 52.1774 5.28648C52.6845 6.55929 52.8351 7.94612 52.6131 9.29805C55.1313 5.98191 58.5263 3.43497 62.4151 1.94441C64.8012 0.917851 67.4672 0.739352 69.9689 1.43866C73.5045 2.61828 76.1214 6.18705 77.5777 10.0213C78.7554 12.9569 79.1868 16.1384 78.8332 19.2814C78.679 20.7822 78.221 22.2359 77.4871 23.5542C76.7532 24.8725 75.7587 26.0278 74.5641 26.9498C71.6802 28.9389 67.9648 28.7369 64.6109 27.8566C61.2571 26.9762 58.0021 25.4836 54.5897 25.0674C51.1773 24.6513 47.3955 25.5535 45.3624 28.5959C43.9306 30.7385 43.5931 33.5608 43.3009 36.2512L41.7814 50.2443C41.6741 52.2463 41.2426 54.2177 40.5038 56.0816C40.3788 56.3416 40.2197 56.5838 40.0307 56.8018V56.8018Z" fill="#2F2E41"/>
<path d="M128.868 208.013H88.9955C88.3493 208.015 87.7113 207.869 87.1298 207.588C86.5484 207.306 86.0389 206.895 85.6402 206.387C85.2327 205.872 84.9482 205.27 84.8083 204.629C84.6685 203.987 84.677 203.322 84.8331 202.684C88.5628 187.068 88.5626 170.793 84.8328 155.177C84.6768 154.539 84.6684 153.874 84.8083 153.233C84.9482 152.591 85.2327 151.989 85.6402 151.474C86.0389 150.966 86.5484 150.555 87.1298 150.274C87.7113 149.992 88.3493 149.847 88.9955 149.849H128.868C129.887 149.851 130.872 150.214 131.648 150.874C132.424 151.534 132.94 152.448 133.105 153.453C135.706 170.339 135.706 187.523 133.105 204.408C132.94 205.413 132.424 206.327 131.648 206.987C130.872 207.647 129.887 208.01 128.868 208.013V208.013Z" fill="#CCCCCC"/>
<path d="M98.2656 171.517V170.345C98.2665 169.55 98.5828 168.788 99.1453 168.226C99.7077 167.664 100.47 167.347 101.266 167.347H122.189C122.985 167.347 123.747 167.664 124.31 168.226C124.872 168.788 125.188 169.55 125.189 170.345V171.517C125.188 172.312 124.872 173.074 124.31 173.636C123.747 174.199 122.985 174.515 122.189 174.516H101.266C100.47 174.515 99.7077 174.199 99.1453 173.636C98.5828 173.074 98.2665 172.312 98.2656 171.517V171.517Z" fill="white"/>
<path d="M98.2656 183.857V182.685C98.2665 181.89 98.5828 181.127 99.1453 180.565C99.7077 180.003 100.47 179.687 101.266 179.686H122.189C122.985 179.687 123.747 180.003 124.31 180.565C124.872 181.127 125.188 181.89 125.189 182.685V183.857C125.188 184.652 124.872 185.414 124.31 185.976C123.747 186.538 122.985 186.855 122.189 186.855H101.266C100.47 186.855 99.7077 186.538 99.1453 185.976C98.5828 185.414 98.2665 184.652 98.2656 183.857Z" fill="white"/>
<path d="M111.128 135.788C110.714 135.264 110.425 134.653 110.282 134C110.14 133.348 110.149 132.672 110.307 132.023C114.099 116.151 114.099 99.609 110.307 83.7364C110.149 83.0879 110.14 82.4117 110.282 81.7593C110.425 81.107 110.714 80.4957 111.128 79.9719C111.533 79.4555 112.051 79.0383 112.642 78.7521C113.233 78.4659 113.882 78.3181 114.538 78.3202H155.066C156.101 78.3222 157.103 78.6915 157.891 79.3623C158.68 80.0332 159.205 80.9622 159.372 81.9837C162.016 99.1467 162.016 116.613 159.372 133.776C159.205 134.798 158.68 135.727 157.891 136.398C157.103 137.068 156.101 137.438 155.066 137.44H114.538C113.882 137.442 113.233 137.294 112.642 137.008C112.051 136.722 111.533 136.304 111.128 135.788Z" fill="#6C63FF"/>
<path d="M147.245 100.133H125.896C125.1 100.132 124.338 99.8163 123.775 99.2541C123.213 98.6919 122.897 97.9296 122.896 97.1345V95.8611C122.897 95.0661 123.213 94.3038 123.775 93.7416C124.338 93.1794 125.1 92.8632 125.896 92.8623H147.245C148.041 92.8632 148.803 93.1794 149.365 93.7416C149.928 94.3038 150.244 95.0661 150.245 95.8611V97.1345C150.244 97.9296 149.928 98.6919 149.365 99.2541C148.803 99.8163 148.041 100.133 147.245 100.133V100.133Z" fill="white"/>
<path d="M147.245 112.676H125.896C125.1 112.675 124.338 112.359 123.775 111.796C123.213 111.234 122.897 110.472 122.896 109.677V108.403C122.897 107.608 123.213 106.846 123.775 106.284C124.338 105.722 125.1 105.406 125.896 105.405H147.245C148.041 105.406 148.803 105.722 149.365 106.284C149.928 106.846 150.244 107.608 150.245 108.403V109.677C150.244 110.472 149.928 111.234 149.365 111.796C148.803 112.359 148.041 112.675 147.245 112.676V112.676Z" fill="white"/>
<path d="M92.5332 157.777C91.0729 157.267 89.7363 156.456 88.6106 155.395C87.4848 154.334 86.5951 153.049 85.9992 151.622C85.8617 151.289 85.7418 150.949 85.6401 150.603L33.3181 135.716C31.0697 135.067 29.0906 133.711 27.6745 131.848C26.2584 129.986 25.4807 127.717 25.457 125.377L25.3293 105.184L44.6152 105.7L45.8721 117.829L90.6128 137.908C91.034 137.657 91.4722 137.435 91.9243 137.244H91.9245C93.5726 136.553 95.364 136.274 97.1442 136.43C98.9244 136.586 100.64 137.173 102.142 138.14C103.645 139.107 104.889 140.425 105.768 141.981C106.647 143.536 107.134 145.282 107.187 147.068C107.24 148.853 106.857 150.625 106.072 152.229C105.287 153.834 104.123 155.223 102.68 156.278C101.237 157.332 99.5598 158.02 97.7919 158.281C96.0241 158.542 94.2192 158.369 92.5332 157.777V157.777Z" fill="#A0616A"/>
<path d="M25.6294 114.049C25.2366 113.607 24.9353 113.092 24.7431 112.533C24.5509 111.974 24.4715 111.382 24.5095 110.793L26.0435 85.8497C26.1338 84.3412 26.5208 82.8653 27.1823 81.5064C27.8438 80.1476 28.7668 78.9324 29.8986 77.9305C31.0304 76.9286 32.3487 76.1596 33.7781 75.6675C35.2075 75.1755 36.7199 74.9699 38.2289 75.0627C39.7378 75.1555 41.2137 75.5448 42.5719 76.2083C43.9302 76.8719 45.1443 77.7967 46.1447 78.9297C47.145 80.0627 47.9121 81.3818 48.402 82.8115C48.8919 84.2412 49.0949 85.7534 48.9995 87.2615L47.4658 112.204C47.391 113.395 46.8471 114.506 45.9534 115.296C45.0597 116.086 43.8891 116.489 42.6983 116.418L28.7247 115.559C28.1345 115.525 27.557 115.373 27.0256 115.114C26.4943 114.855 26.0198 114.493 25.6294 114.049H25.6294Z" fill="#CCCCCC"/>
</svg>
